<svg width="38" height="37" viewBox="0 0 38 37" fill="none" xmlns="http://www.w3.org/2000/svg">
<path d="M18.9983 11.3729C17.0566 11.3729 15.1944 12.124 13.8214 13.4609C12.4484 14.7977 11.677 16.611 11.677 18.5016C11.677 20.3922 12.4484 22.2054 13.8214 23.5423C15.1944 24.8792 17.0566 25.6303 18.9983 25.6303C20.9401 25.6303 22.8023 24.8792 24.1753 23.5423C25.5483 22.2054 26.3197 20.3922 26.3197 18.5016C26.3197 16.611 25.5483 14.7977 24.1753 13.4609C22.8023 12.124 20.9401 11.3729 18.9983 11.3729ZM18.9983 23.1312C17.7369 23.1312 16.5271 22.6433 15.6351 21.7748C14.7431 20.9063 14.242 19.7283 14.242 18.5001C14.242 17.2718 14.7431 16.0938 15.6351 15.2253C16.5271 14.3568 17.7369 13.8689 18.9983 13.8689C20.2598 13.8689 21.4696 14.3568 22.3616 15.2253C23.2536 16.0938 23.7547 17.2718 23.7547 18.5001C23.7547 19.7283 23.2536 20.9063 22.3616 21.7748C21.4696 22.6433 20.2598 23.1312 18.9983 23.1312Z" fill="black" fill-opacity="0.5"/>
<path d="M26.6094 12.7727C27.5521 12.7727 28.3163 12.0286 28.3163 11.1108C28.3163 10.1929 27.5521 9.44885 26.6094 9.44885C25.6668 9.44885 24.9026 10.1929 24.9026 11.1108C24.9026 12.0286 25.6668 12.7727 26.6094 12.7727Z" fill="black" fill-opacity="0.5"/>
<path d="M32.5106 9.42111C32.1441 8.49947 31.5839 7.6625 30.866 6.96378C30.1482 6.26506 29.2884 5.71998 28.3417 5.36344C27.2339 4.95853 26.0635 4.73959 24.8805 4.71594C23.3558 4.65119 22.8728 4.63269 19.0063 4.63269C15.1398 4.63269 14.6443 4.63269 13.1322 4.71594C11.95 4.73838 10.7805 4.95737 9.67417 5.36344C8.72724 5.71957 7.86722 6.2645 7.14929 6.96327C6.43135 7.66204 5.87137 8.49923 5.50526 9.42111C5.08932 10.4997 4.86498 11.6393 4.84184 12.7912C4.77376 14.2743 4.75317 14.7445 4.75317 18.5108C4.75317 22.2755 4.75317 22.755 4.84184 24.2304C4.86559 25.3835 5.08884 26.5213 5.50526 27.602C5.8724 28.5235 6.43293 29.3604 7.15103 30.0591C7.86914 30.7577 8.72902 31.3029 9.67576 31.6596C10.78 32.0808 11.95 32.3154 13.1353 32.3534C14.6601 32.4181 15.143 32.4382 19.0095 32.4382C22.876 32.4382 23.3716 32.4382 24.8837 32.3534C26.0666 32.33 27.2369 32.1116 28.3448 31.7074C29.2913 31.3501 30.1508 30.8045 30.8686 30.1056C31.5864 29.4067 32.1467 28.5698 32.5138 27.6482C32.9302 26.5691 33.1534 25.4313 33.1772 24.2782C33.2453 22.7951 33.2658 22.3249 33.2658 18.5586C33.2658 14.7923 33.2658 14.3144 33.1772 12.839C33.1587 11.6708 32.9332 10.5145 32.5106 9.42111ZM30.5821 24.1163C30.5719 25.0047 30.4053 25.8849 30.0897 26.7186C29.8519 27.3181 29.4879 27.8625 29.021 28.3168C28.5542 28.7711 27.9949 29.1252 27.379 29.3564C26.5323 29.6623 25.6379 29.8245 24.7348 29.8359C23.2307 29.9037 22.8063 29.9207 18.9493 29.9207C15.0892 29.9207 14.6949 29.9206 13.1623 29.8359C12.2596 29.8251 11.3657 29.6629 10.5197 29.3564C9.90168 29.1267 9.34009 28.7732 8.87125 28.3188C8.40241 27.8644 8.03675 27.3193 7.79792 26.7186C7.48671 25.8939 7.32025 25.0241 7.30551 24.1456C7.23742 22.681 7.22159 22.2678 7.22159 18.5123C7.22159 14.7553 7.22159 14.3714 7.30551 12.8775C7.31574 11.9896 7.48229 11.1099 7.79792 10.2767C8.28084 9.06036 9.27042 8.10298 10.5197 7.6374C11.3661 7.33236 12.2598 7.17022 13.1623 7.15794C14.668 7.09165 15.0908 7.07315 18.9493 7.07315C22.8079 7.07315 23.2038 7.07315 24.7348 7.15794C25.638 7.16852 26.5325 7.33072 27.379 7.6374C27.9948 7.86907 28.5541 8.22354 29.0209 8.67807C29.4877 9.1326 29.8517 9.67713 30.0897 10.2767C30.4009 11.1014 30.5673 11.9713 30.5821 12.8498C30.6502 14.3159 30.6676 14.7275 30.6676 18.4846C30.6676 22.2401 30.6676 22.644 30.5995 24.1178H30.5821V24.1163Z" fill="black" fill-opacity="0.5"/>
</svg>
