<svg width="37" height="37" viewBox="0 0 37 37" fill="none" xmlns="http://www.w3.org/2000/svg">
<path d="M29.3224 7.66977C27.181 5.52932 24.453 4.07192 21.4833 3.48187C18.5136 2.89183 15.4356 3.19563 12.6386 4.35487C9.84158 5.51411 7.45111 7.47672 5.76948 9.99453C4.08786 12.5123 3.1906 15.4722 3.19116 18.5C3.19116 22.5608 4.8038 26.4555 7.67452 29.3276C10.5452 32.1998 14.4391 33.8144 18.4999 33.8164C20.5095 33.8173 22.4997 33.4245 24.3582 32.6602C26.2109 31.8782 27.8961 30.7477 29.3224 29.3302C30.7448 27.908 31.8731 26.2196 32.6429 24.3614C33.4128 22.5031 33.809 20.5114 33.809 18.5C33.809 16.4886 33.4128 14.4969 32.6429 12.6386C31.8731 10.7803 30.7448 9.09193 29.3224 7.66977ZM28.2432 28.2356C26.0387 30.4495 23.1461 31.8469 20.0416 32.1977V22.0844H22.9399C23.3488 22.0844 23.7409 21.9219 24.03 21.6328C24.3192 21.3437 24.4816 20.9516 24.4816 20.5427C24.4816 20.1338 24.3192 19.7417 24.03 19.4526C23.7409 19.1634 23.3488 19.001 22.9399 19.001H20.0416V14.7769C20.0416 14.368 20.204 13.9759 20.4931 13.6867C20.7822 13.3976 21.1744 13.2352 21.5832 13.2352H23.4332C23.8421 13.2352 24.2342 13.0728 24.5234 12.7836C24.8125 12.4945 24.9749 12.1024 24.9749 11.6935C24.9749 11.2846 24.8125 10.8925 24.5234 10.6034C24.2342 10.3143 23.8421 10.1519 23.4332 10.1519H20.8124C19.7902 10.1519 18.8099 10.5579 18.0871 11.2807C17.3643 12.0035 16.9582 12.9838 16.9582 14.006V19.001H14.0753C13.6665 19.001 13.2743 19.1634 12.9852 19.4526C12.6961 19.7417 12.5337 20.1338 12.5337 20.5427C12.5337 20.9516 12.6961 21.3437 12.9852 21.6328C13.2743 21.9219 13.6665 22.0844 14.0753 22.0844H16.9582V32.1977C14.0952 31.871 11.4071 30.6532 9.27373 28.7161C7.14032 26.779 5.66941 24.2206 5.06876 21.4023C4.4681 18.584 4.76807 15.6482 5.92628 13.0096C7.08449 10.371 9.04241 8.16292 11.5235 6.69732C14.0046 5.23172 16.8834 4.58264 19.7533 4.84177C22.6233 5.10089 25.3393 6.25513 27.5177 8.14143C29.6961 10.0277 31.2269 12.5508 31.8937 15.3542C32.5606 18.1576 32.3298 21.0996 31.2341 23.7648C30.5362 25.4347 29.5204 26.9532 28.2432 28.2356Z" fill="black" fill-opacity="0.5"/>
</svg>
