<svg width="32" height="33" viewBox="0 0 32 33" fill="none" xmlns="http://www.w3.org/2000/svg">
<g clip-path="url(#clip0_8_52)">
<path d="M19.5151 12.3255C18.8371 12.3255 18.3351 12.5019 17.9421 12.7246C17.8791 12.4936 17.6721 12.3245 17.4281 12.375H14.4441C14.1491 12.3245 13.9101 12.571 14.0011 12.8907V24.2344C13.9101 24.5232 14.1491 24.7707 14.4441 24.75H17.4281C17.7231 24.7707 17.9621 24.5232 17.9621 24.2189L17.9611 17.3632C17.9601 17.3601 17.9491 17.0322 18.1501 16.8063C18.3111 16.6269 18.5881 16.5351 18.9711 16.5351C19.6091 16.5351 19.8931 16.8042 19.9991 17.4065V24.2189C19.8941 24.5232 20.1331 24.7707 20.4281 24.75H23.5731C23.8681 24.7707 24.1071 24.5232 24.0011 24.2189V17.1776C24.1061 13.5971 21.6331 12.3255 19.5151 12.3255ZM23.0381 23.7188H20.9621V17.4065C20.9621 16.1886 20.1991 15.4337 18.9721 15.4337C18.2781 15.4337 17.7381 15.6441 17.3661 16.0587C16.8491 16.6362 16.8891 17.3683 17.0001 17.5313V23.7188H14.9781V13.4269H16.8941V13.7734C16.8933 13.8766 16.9208 13.978 16.9733 14.0658C17.0259 14.1537 17.1014 14.2244 17.1912 14.27C17.2811 14.3155 17.3815 14.3341 17.4811 14.3234C17.5806 14.3127 17.6753 14.2733 17.7541 14.2096L17.8941 14.0982C18.2991 13.7693 18.7181 13.4279 19.5161 13.4279C20.3421 13.4279 23.0391 13.6992 23.0391 17.1786L23.0381 23.7188ZM11.0001 7.18372C9.87806 7.18372 8.96606 8.12422 8.96606 9.28128C8.96606 10.4383 9.87806 11.3788 11.0001 11.3788C12.1221 11.3788 13.0341 10.4383 13.0341 9.28128C13.0341 8.12422 12.1221 7.18372 11.0001 7.18372ZM11.0001 10.2775C10.4681 10.2775 10.0341 9.8299 10.0341 9.28128C10.0341 8.73265 10.4681 8.28509 11.0001 8.28509C11.5321 8.28509 11.9661 8.73265 11.9661 9.28128C11.9661 9.8299 11.5321 10.2775 11.0001 10.2775ZM12.4281 12.3245H9.46006C9.16506 12.3245 8.92606 12.571 9.00006 12.8907V24.2344C8.92606 24.5232 9.16506 24.7707 9.46006 24.75H12.4281C12.7231 24.7707 12.9621 24.5232 12.9621 24.2189V12.8752C12.9621 12.7291 12.9058 12.5891 12.8057 12.4858C12.7055 12.3825 12.5697 12.3245 12.4281 12.3245ZM12.0001 23.7188H9.99407V13.4269H12.0001V23.7188Z" fill="black" fill-opacity="0.5"/>
<path d="M16.0001 -0.0350342C7.15807 -0.0350342 -0.0339355 7.38172 -0.0339355 16.5C-0.0339355 25.6183 7.15807 33.0351 16.0001 33.0351C24.8421 33.0351 32.0341 25.6183 32.0341 16.5C32.0341 7.38172 24.8421 -0.0350342 16.0001 -0.0350342ZM16.0001 31.9337C7.74807 31.9337 1.03406 25.0099 1.03406 16.5C1.03406 7.99016 7.74807 1.06634 16.0001 1.06634C24.2521 1.06634 30.9661 7.99016 30.9661 16.5C30.9661 25.0099 24.2521 31.9337 16.0001 31.9337Z" fill="black" fill-opacity="0.5"/>
</g>
<defs>
<clipPath id="clip0_8_52">
<rect width="32" height="33" fill="white"/>
</clipPath>
</defs>
</svg>
