<svg width="33" height="33" viewBox="0 0 33 33" fill="none" xmlns="http://www.w3.org/2000/svg">
<g clip-path="url(#clip0_8_48)">
<path d="M16.5 -0.0350342C7.38268 -0.0350342 -0.0361328 7.38172 -0.0361328 16.5C-0.0361328 25.6183 7.38268 33.0351 16.5 33.0351C25.6172 33.0351 33.0361 25.6183 33.0361 16.5C33.0361 7.38172 25.6172 -0.0350342 16.5 -0.0350342ZM16.5 31.9337C7.99009 31.9337 1.0673 25.0099 1.0673 16.5C1.0673 7.99016 7.99009 1.06634 16.5 1.06634C25.0098 1.06634 31.9326 7.99016 31.9326 16.5C31.9326 25.0099 25.0098 31.9337 16.5 31.9337Z" fill="black" fill-opacity="0.5"/>
<path d="M25.5688 11.3912C25.6832 11.1795 25.7775 10.9575 25.8504 10.7281C25.8841 10.6217 25.8848 10.5076 25.8523 10.4008C25.8199 10.2941 25.7558 10.1996 25.6685 10.13C25.5813 10.0604 25.475 10.0189 25.3636 10.011C25.2523 10.0031 25.1412 10.0291 25.045 10.0857C24.5165 10.3996 23.9445 10.6335 23.3475 10.7797C22.6228 10.1256 21.6817 9.76305 20.7055 9.76184C20.1751 9.76225 19.6503 9.86974 19.1625 10.0779C18.6747 10.286 18.2339 10.5905 17.8666 10.9731C17.4994 11.3557 17.2131 11.8085 17.0251 12.3044C16.837 12.8003 16.751 13.3291 16.7723 13.859C14.453 13.567 12.3352 12.3934 10.8581 10.5817C10.8015 10.513 10.7291 10.4591 10.6472 10.4244C10.5653 10.3897 10.4762 10.3752 10.3876 10.3823C10.2989 10.3894 10.2132 10.4178 10.1379 10.4651C10.0625 10.5124 9.99966 10.5771 9.95468 10.6539C9.61646 11.2344 9.43262 11.8919 9.4207 12.5636C9.40879 13.2354 9.5692 13.899 9.88662 14.4912C9.80877 14.5043 9.73398 14.5316 9.66593 14.5716C9.58255 14.6248 9.5139 14.6981 9.46632 14.7848C9.41874 14.8715 9.39376 14.9687 9.39368 15.0676C9.39368 16.2381 9.91446 17.3127 10.7539 18.0428L10.7178 18.0789C10.6544 18.1506 10.6108 18.2375 10.5913 18.3312C10.5718 18.4249 10.577 18.522 10.6064 18.6131C10.7815 19.1591 11.0737 19.6604 11.4628 20.0816C11.8518 20.5029 12.3282 20.8341 12.8587 21.052C11.7693 21.5834 10.5501 21.7907 9.34625 21.6491C9.2225 21.6364 9.09807 21.6652 8.99244 21.7309C8.88682 21.7966 8.80597 21.8955 8.76256 22.0121C8.72087 22.1295 8.72009 22.2576 8.76034 22.3755C8.80058 22.4934 8.8795 22.5943 8.98428 22.6617C10.6209 23.7121 12.5248 24.2702 14.4695 24.2695C20.8426 24.2695 24.6521 19.0926 24.6521 14.0879L24.651 13.9188C25.2687 13.4366 25.8052 12.8587 26.2402 12.2069C26.3061 12.1084 26.3384 11.9913 26.3326 11.8729C26.3267 11.7545 26.2828 11.6412 26.2075 11.5497C26.1322 11.4582 26.0294 11.3934 25.9144 11.3648C25.7994 11.3363 25.6782 11.3455 25.5688 11.3912ZM23.7693 13.2011C23.6945 13.2549 23.6343 13.3266 23.5943 13.4096C23.5543 13.4927 23.5358 13.5844 23.5404 13.6765C23.5466 13.8126 23.5497 13.9508 23.5497 14.0869C23.5497 18.5502 20.1537 23.1671 14.4705 23.1671C13.4569 23.1675 12.4505 22.9974 11.4933 22.6638C12.6396 22.4441 13.7165 21.9525 14.6335 21.2304C14.7227 21.16 14.7881 21.0638 14.8206 20.9548C14.8531 20.8459 14.8511 20.7296 14.815 20.6218C14.7789 20.5141 14.7104 20.4201 14.6188 20.3527C14.5272 20.2854 14.4171 20.2479 14.3035 20.2455C13.8588 20.237 13.4224 20.1242 13.0294 19.916C12.6364 19.7079 12.2978 19.4103 12.0409 19.0472C12.3018 19.0297 12.5576 18.9864 12.8061 18.9193C12.9264 18.8871 13.0322 18.8151 13.1063 18.7151C13.1804 18.615 13.2184 18.4928 13.2141 18.3683C13.2098 18.2439 13.1634 18.1246 13.0826 18.0299C13.0017 17.9352 12.8912 17.8706 12.769 17.8468C12.2668 17.7447 11.8018 17.5079 11.4238 17.1619C11.0458 16.8158 10.769 16.3735 10.6229 15.8823C10.8972 15.9514 11.1788 15.9916 11.4603 16.0009C11.7027 15.9999 11.9275 15.8514 12.0027 15.6183C12.078 15.3852 11.9893 15.1285 11.7841 14.9923C11.2989 14.6691 10.9253 14.2039 10.7143 13.6603C10.5033 13.1167 10.4653 12.5213 10.6054 11.9553C12.3967 13.7933 14.8155 14.8878 17.3787 15.0202C17.5602 15.0212 17.719 14.9562 17.8293 14.8232C17.9397 14.6902 17.9819 14.5138 17.9427 14.3447C17.8017 13.7373 17.8648 13.1003 18.1222 12.5324C18.3797 11.9645 18.8171 11.4972 19.3669 11.203C19.9167 10.9087 20.5481 10.8038 21.1635 10.9046C21.7789 11.0054 22.3439 11.3062 22.7711 11.7604C22.8351 11.8287 22.9154 11.8796 23.0046 11.9083C23.0937 11.937 23.1886 11.9425 23.2805 11.9244C23.4507 11.8903 23.6187 11.8512 23.7848 11.8058C23.7099 11.8618 23.6321 11.9138 23.5517 11.9615C23.4448 12.027 23.3633 12.127 23.3208 12.245C23.2783 12.363 23.2773 12.4919 23.3179 12.6106C23.3585 12.7292 23.4383 12.8305 23.5441 12.8977C23.65 12.9649 23.7756 12.9941 23.9003 12.9804L24.088 12.9567C23.9846 13.0418 23.8783 13.1233 23.7693 13.2011Z" fill="black" fill-opacity="0.5"/>
</g>
<defs>
<clipPath id="clip0_8_48">
<rect width="33" height="33" fill="white"/>
</clipPath>
</defs>
</svg>
