<svg width="136" height="59" viewBox="0 0 136 59" fill="none" xmlns="http://www.w3.org/2000/svg">
<path d="M55.0703 33C55.0312 33.3125 54.901 33.5794 54.6797 33.8008C54.4583 34.0091 54.25 34.237 54.0547 34.4844C53.8203 34.7448 53.625 34.9661 53.4688 35.1484C53.3255 35.3177 53.1953 35.487 53.0781 35.6562C52.9609 35.8255 52.8503 36.0078 52.7461 36.2031C52.6549 36.3984 52.5508 36.6458 52.4336 36.9453C52.4076 36.9974 52.375 37.0365 52.3359 37.0625C52.3099 37.0885 52.2969 37.1471 52.2969 37.2383C52.2708 37.5247 52.1016 37.7396 51.7891 37.8828C51.4896 38.026 51.1185 38.1237 50.6758 38.1758C50.2461 38.2409 49.7839 38.2734 49.2891 38.2734C48.8073 38.2734 48.3776 38.2734 48 38.2734C47.7396 38.2734 47.4661 38.2669 47.1797 38.2539C46.9062 38.2539 46.6393 38.2539 46.3789 38.2539C46.1185 38.2539 45.8841 38.2799 45.6758 38.332C45.4805 38.3841 45.3047 38.4102 45.1484 38.4102C44.8099 38.4102 44.4974 38.3841 44.2109 38.332C43.9245 38.2799 43.651 38.2539 43.3906 38.2539C43.1172 38.2669 42.8698 38.2995 42.6484 38.3516C42.4401 38.4036 42.2318 38.4557 42.0234 38.5078C41.8151 38.5729 41.6068 38.625 41.3984 38.6641C41.2031 38.7161 40.9883 38.7422 40.7539 38.7422C40.6628 38.7422 40.5846 38.7292 40.5195 38.7031C40.4544 38.6771 40.4219 38.5924 40.4219 38.4492C40.4219 38.293 40.5 38.1888 40.6562 38.1367C40.8255 38.0846 41.0078 38.0391 41.2031 38C41.4115 37.9609 41.5938 37.9089 41.75 37.8438C41.9193 37.7786 42.0039 37.6615 42.0039 37.4922V37.2969C42.0039 37.2318 42.0039 37.1602 42.0039 37.082C42.0169 37.0039 42.043 36.9128 42.082 36.8086C42.0951 36.7695 42.1471 36.724 42.2383 36.6719C42.3294 36.6068 42.375 36.5352 42.375 36.457C42.375 36.431 42.3685 36.3984 42.3555 36.3594C42.3555 36.3203 42.3555 36.2878 42.3555 36.2617C42.3555 36.2487 42.362 36.2357 42.375 36.2227C42.5052 36.1055 42.5898 35.8776 42.6289 35.5391C42.681 35.1875 42.7135 34.7969 42.7266 34.3672C42.7396 33.9375 42.7461 33.5013 42.7461 33.0586C42.7461 32.6029 42.7656 32.1992 42.8047 31.8477C42.8438 31.5612 42.9154 31.2747 43.0195 30.9883C43.1237 30.7018 43.2018 30.4089 43.2539 30.1094C43.2539 30.0573 43.2604 29.9336 43.2734 29.7383C43.2995 29.543 43.319 29.3346 43.332 29.1133C43.3451 28.8919 43.3581 28.6771 43.3711 28.4688C43.3841 28.2474 43.3906 28.0911 43.3906 28C43.3906 27.9219 43.3581 27.8698 43.293 27.8438C43.2409 27.8047 43.1823 27.7852 43.1172 27.7852C42.974 27.7852 42.8112 27.8372 42.6289 27.9414C42.4596 28.0456 42.2839 28.1628 42.1016 28.293C41.9193 28.4232 41.737 28.5404 41.5547 28.6445C41.3724 28.7487 41.2096 28.8008 41.0664 28.8008C40.9622 28.8008 40.9036 28.7682 40.8906 28.7031C40.8776 28.638 40.8711 28.5729 40.8711 28.5078C40.8711 28.3516 40.9297 28.2148 41.0469 28.0977C41.1641 27.9674 41.3073 27.8438 41.4766 27.7266C41.6458 27.6094 41.8216 27.4987 42.0039 27.3945C42.1992 27.2773 42.3685 27.1602 42.5117 27.043C42.5768 26.9779 42.6094 26.9128 42.6094 26.8477C42.6094 26.7826 42.6419 26.75 42.707 26.75C42.7331 26.75 42.7656 26.7565 42.8047 26.7695C42.8438 26.7695 42.8763 26.7695 42.9023 26.7695C42.9674 26.7695 43.0065 26.724 43.0195 26.6328C43.0326 26.5286 43.0651 26.4635 43.1172 26.4375C43.2344 26.3984 43.332 26.3659 43.4102 26.3398C43.4883 26.3008 43.5534 26.2292 43.6055 26.125C43.6576 26.0078 43.6966 25.832 43.7227 25.5977C43.7487 25.3633 43.7617 25.0182 43.7617 24.5625C43.7617 24.1198 43.8138 23.7747 43.918 23.5273C44.0352 23.2669 44.1068 23.026 44.1328 22.8047C44.1589 22.5964 44.1784 22.3685 44.1914 22.1211C44.2044 21.8737 44.2109 21.6263 44.2109 21.3789C44.224 21.1185 44.2305 20.8776 44.2305 20.6562C44.2435 20.4219 44.2565 20.2135 44.2695 20.0312C44.2956 19.7578 44.3346 19.4909 44.3867 19.2305C44.4388 18.9701 44.4648 18.7487 44.4648 18.5664C44.4648 18.306 44.3802 18.1367 44.2109 18.0586C44.0417 17.9805 43.8724 17.9414 43.7031 17.9414C43.5599 17.9414 43.4036 17.9544 43.2344 17.9805C43.0781 17.9935 42.9284 18 42.7852 18C42.6419 18 42.5052 17.9805 42.375 17.9414C42.2578 17.9023 42.1602 17.8177 42.082 17.6875C42.1471 17.4792 42.2708 17.3294 42.4531 17.2383C42.6484 17.1471 42.8698 17.0885 43.1172 17.0625C43.3776 17.0234 43.6445 17.0104 43.918 17.0234C44.2044 17.0234 44.4648 17.0104 44.6992 16.9844C45.168 16.9453 45.6497 16.9193 46.1445 16.9062C46.6393 16.8932 47.1341 16.8672 47.6289 16.8281C47.9284 16.8021 48.2214 16.75 48.5078 16.6719C48.8073 16.5807 49.1198 16.5352 49.4453 16.5352C49.5755 16.5352 49.6992 16.5417 49.8164 16.5547C49.9466 16.5547 50.0833 16.5547 50.2266 16.5547C50.6302 16.5547 50.9948 16.5026 51.3203 16.3984C51.6589 16.2943 52.043 16.2422 52.4727 16.2422C52.5638 16.2422 52.6224 16.2487 52.6484 16.2617C52.6875 16.2747 52.7135 16.2943 52.7266 16.3203C52.7396 16.3333 52.7526 16.3464 52.7656 16.3594C52.7786 16.3724 52.8047 16.3789 52.8438 16.3789C52.8698 16.3789 52.8828 16.3724 52.8828 16.3594C52.8958 16.3464 52.9089 16.3333 52.9219 16.3203C52.9349 16.2943 52.9544 16.2747 52.9805 16.2617C53.0195 16.2487 53.0911 16.2422 53.1953 16.2422C53.2995 16.2422 53.3971 16.2487 53.4883 16.2617C53.5924 16.2617 53.6966 16.2617 53.8008 16.2617C53.918 16.2617 54.0221 16.2422 54.1133 16.2031C54.2044 16.1641 54.2891 16.125 54.3672 16.0859C54.4583 16.0469 54.5495 16.0078 54.6406 15.9688C54.7448 15.9297 54.8685 15.9102 55.0117 15.9102C55.2721 15.9102 55.4544 15.9753 55.5586 16.1055C55.6758 16.2357 55.7344 16.3984 55.7344 16.5938C55.7344 16.7891 55.6953 17.0104 55.6172 17.2578C55.5391 17.4922 55.4479 17.7331 55.3438 17.9805C55.2396 18.2148 55.1289 18.4427 55.0117 18.6641C54.9076 18.8724 54.8229 19.0417 54.7578 19.1719C54.7057 19.276 54.6602 19.3997 54.6211 19.543C54.5951 19.6732 54.5495 19.7839 54.4844 19.875C54.4193 19.9531 54.3411 20.0312 54.25 20.1094C54.1589 20.1745 54.0938 20.2461 54.0547 20.3242C54.0156 20.3633 53.9831 20.4414 53.957 20.5586C53.944 20.6628 53.9245 20.7734 53.8984 20.8906C53.8724 20.9948 53.8333 21.0924 53.7812 21.1836C53.7292 21.2617 53.6576 21.3008 53.5664 21.3008C53.4492 21.3008 53.3581 21.2617 53.293 21.1836C53.2279 21.0924 53.1953 20.9883 53.1953 20.8711C53.1953 20.6107 53.2409 20.3242 53.332 20.0117C53.4232 19.6862 53.4688 19.3346 53.4688 18.957C53.4688 18.7357 53.4362 18.5208 53.3711 18.3125C53.319 18.0911 53.1953 17.9805 53 17.9805C52.8438 17.9805 52.6419 18.0065 52.3945 18.0586C52.1471 18.1107 51.9714 18.1367 51.8672 18.1367C51.6198 18.1367 51.2747 18.1172 50.832 18.0781C50.4023 18.0391 49.9596 18.0195 49.5039 18.0195C49.0872 18.0195 48.7357 18.0521 48.4492 18.1172C48.1628 18.1693 47.9219 18.306 47.7266 18.5273C47.5443 18.7357 47.3945 19.0547 47.2773 19.4844C47.1732 19.901 47.0951 20.474 47.043 21.2031V21.4375C47.056 21.6198 47.0104 21.9062 46.9062 22.2969C46.8021 22.6745 46.75 23.0911 46.75 23.5469V23.8398C46.75 23.9701 46.724 24.0807 46.6719 24.1719C46.6328 24.25 46.6133 24.2826 46.6133 24.2695C46.6133 24.3346 46.6328 24.4323 46.6719 24.5625C46.724 24.6797 46.75 24.8229 46.75 24.9922C46.75 25.0182 46.7174 25.0833 46.6523 25.1875C46.6003 25.2786 46.5742 25.3698 46.5742 25.4609C46.5742 25.526 46.6784 25.5846 46.8867 25.6367C47.1081 25.6888 47.3685 25.7344 47.668 25.7734C47.9674 25.7995 48.2734 25.8255 48.5859 25.8516C48.8984 25.8646 49.1589 25.8711 49.3672 25.8711C49.5495 25.8711 49.7383 25.8451 49.9336 25.793C50.1419 25.7409 50.3828 25.7148 50.6562 25.7148C50.7865 25.7148 50.9102 25.7214 51.0273 25.7344C51.1576 25.7474 51.2747 25.7539 51.3789 25.7539C51.457 25.7539 51.5156 25.7474 51.5547 25.7344C51.9193 25.6432 52.1927 25.5195 52.375 25.3633C52.5703 25.207 52.7461 25.0508 52.9023 24.8945C53.0586 24.7383 53.2344 24.6016 53.4297 24.4844C53.638 24.3542 53.9375 24.276 54.3281 24.25C54.3802 24.3151 54.4062 24.3932 54.4062 24.4844C54.4062 24.6276 54.3411 24.7643 54.2109 24.8945C54.0938 25.0247 53.9896 25.1549 53.8984 25.2852C53.8724 25.3112 53.8464 25.3828 53.8203 25.5C53.8073 25.6172 53.7812 25.6953 53.7422 25.7344C53.6771 25.7995 53.5859 25.8255 53.4688 25.8125C53.3516 25.7865 53.2539 25.806 53.1758 25.8711C53.1107 25.8971 53.0586 25.9427 53.0195 26.0078C52.9935 26.0599 52.9479 26.112 52.8828 26.1641C52.4792 26.3984 52.1667 26.6198 51.9453 26.8281C51.724 27.0365 51.5286 27.2188 51.3594 27.375C51.1901 27.5182 51.0143 27.6354 50.832 27.7266C50.6497 27.8047 50.4023 27.8438 50.0898 27.8438C49.5039 27.8438 48.918 27.7917 48.332 27.6875C47.7591 27.5833 47.2253 27.5312 46.7305 27.5312C46.4049 27.5312 46.1966 27.6419 46.1055 27.8633C46.0143 28.0716 45.9688 28.3255 45.9688 28.625C45.9688 28.7292 45.9753 28.8268 45.9883 28.918C46.0013 28.9961 46.0078 29.0677 46.0078 29.1328C46.0078 29.1979 45.9948 29.2891 45.9688 29.4062C45.9427 29.5104 45.9102 29.6276 45.8711 29.7578C45.8451 29.875 45.819 29.9922 45.793 30.1094C45.7669 30.2135 45.7474 30.3047 45.7344 30.3828C45.7083 30.6042 45.6823 30.819 45.6562 31.0273C45.6302 31.2357 45.5977 31.4766 45.5586 31.75C45.5326 32.0104 45.4935 32.3099 45.4414 32.6484C45.4023 32.987 45.3568 33.3971 45.3047 33.8789C45.2656 34.2565 45.2201 34.569 45.168 34.8164C45.1159 35.0638 45.0508 35.2982 44.9727 35.5195C44.8945 35.7279 44.7969 35.9427 44.6797 36.1641C44.5755 36.3724 44.4388 36.6328 44.2695 36.9453C44.3086 36.9453 44.3411 36.9518 44.3672 36.9648C44.4062 36.9648 44.4388 36.9648 44.4648 36.9648C44.6341 36.9648 44.8034 36.9388 44.9727 36.8867C45.1549 36.8346 45.4089 36.763 45.7344 36.6719C45.8125 36.6198 45.8906 36.5677 45.9688 36.5156C46.0339 36.4766 46.099 36.444 46.1641 36.418C46.2292 36.3789 46.2943 36.3594 46.3594 36.3594C46.3984 36.3594 46.457 36.3659 46.5352 36.3789C46.6133 36.3919 46.6849 36.3984 46.75 36.3984C46.8281 36.3984 46.8802 36.3854 46.9062 36.3594C46.9453 36.3203 47.0039 36.3008 47.082 36.3008C47.2383 36.3008 47.5443 36.3268 48 36.3789C48.4557 36.418 48.9961 36.4375 49.6211 36.4375C49.8685 36.4375 50.1029 36.431 50.3242 36.418C50.5586 36.3919 50.7799 36.3268 50.9883 36.2227C51.0143 36.1966 51.0534 36.151 51.1055 36.0859C51.1706 36.0208 51.2357 35.9492 51.3008 35.8711C51.3659 35.793 51.431 35.7214 51.4961 35.6562C51.5742 35.5911 51.6458 35.5391 51.7109 35.5C51.7891 35.4479 51.8867 35.4284 52.0039 35.4414C52.1211 35.4414 52.2188 35.4089 52.2969 35.3438C52.401 35.2656 52.4922 35.1615 52.5703 35.0312C52.6484 34.888 52.7526 34.7513 52.8828 34.6211L53.8984 33.6055C53.9505 33.5534 54.0026 33.4948 54.0547 33.4297C54.1068 33.3516 54.1654 33.2799 54.2305 33.2148C54.3086 33.1497 54.3997 33.0977 54.5039 33.0586C54.6081 33.0195 54.7383 33 54.8945 33H55.0703ZM76.5352 4.23047V4.21094C76.3138 4.67969 76.1315 5.05078 75.9883 5.32422C75.8581 5.59766 75.7344 5.82552 75.6172 6.00781C75.5 6.17708 75.3893 6.32682 75.2852 6.45703C75.181 6.58724 75.0508 6.75 74.8945 6.94531C74.8164 6.97135 74.6797 7.07552 74.4844 7.25781C74.2891 7.4401 74.0807 7.64193 73.8594 7.86328C73.638 8.08464 73.4297 8.28646 73.2344 8.46875C73.0391 8.65104 72.9023 8.75521 72.8242 8.78125C72.7852 8.89844 72.7005 9.01562 72.5703 9.13281C72.4531 9.25 72.3099 9.36068 72.1406 9.46484C71.9714 9.56901 71.7956 9.67969 71.6133 9.79688C71.431 9.90104 71.2617 10.0052 71.1055 10.1094C70.8451 10.2917 70.6237 10.4479 70.4414 10.5781C70.2721 10.6953 70.1029 10.806 69.9336 10.9102C69.7643 11.0143 69.582 11.112 69.3867 11.2031C69.1914 11.2812 68.944 11.3659 68.6445 11.457C68.0977 11.6263 67.4857 11.7695 66.8086 11.8867C66.1315 12.0039 65.4805 12.0625 64.8555 12.0625C64.4518 12.0625 64.0482 12.043 63.6445 12.0039C63.2409 11.9518 62.9349 11.8737 62.7266 11.7695C62.6484 11.8477 62.6094 11.8997 62.6094 11.9258C62.6094 11.9779 62.6419 12.0234 62.707 12.0625C62.7721 12.0885 62.8242 12.1341 62.8633 12.1992C62.9154 12.2773 62.9609 12.375 63 12.4922C63.0391 12.6094 63.0911 12.707 63.1562 12.7852C63.2865 12.9544 63.4362 13.1042 63.6055 13.2344C63.7878 13.3646 63.931 13.5078 64.0352 13.6641C64.1003 13.7422 64.1458 13.8594 64.1719 14.0156C64.2109 14.1589 64.263 14.2826 64.3281 14.3867C64.3932 14.5039 64.4648 14.6081 64.543 14.6992C64.6341 14.7773 64.7122 14.8685 64.7773 14.9727C65.0247 15.4154 65.2396 15.8255 65.4219 16.2031C65.6042 16.5807 65.8255 16.9974 66.0859 17.4531C66.138 17.5573 66.2096 17.6549 66.3008 17.7461C66.3919 17.8372 66.4635 17.9349 66.5156 18.0391C66.5547 18.1432 66.5742 18.2604 66.5742 18.3906C66.5872 18.5208 66.6198 18.6445 66.6719 18.7617C66.8281 19.2044 66.9974 19.6667 67.1797 20.1484C67.375 20.6172 67.5443 21.0794 67.6875 21.5352C67.7526 21.7826 67.7982 22.0495 67.8242 22.3359C67.8633 22.6224 67.9154 22.8893 67.9805 23.1367C68.0977 23.6055 68.2083 24.0156 68.3125 24.3672C68.4167 24.7188 68.4688 25.1419 68.4688 25.6367C68.4688 25.8581 68.4622 26.0794 68.4492 26.3008C68.4362 26.5221 68.4232 26.737 68.4102 26.9453C68.3841 27.1406 68.319 27.3359 68.2148 27.5312C68.1237 27.7266 68.0846 27.9349 68.0977 28.1562C68.0977 28.2604 68.1042 28.3646 68.1172 28.4688C68.1302 28.5599 68.1367 28.651 68.1367 28.7422C68.1367 29.0156 68.0977 29.2956 68.0195 29.582C67.9414 29.8555 67.8503 30.1419 67.7461 30.4414C67.6419 30.7279 67.5312 31.0208 67.4141 31.3203C67.2969 31.6068 67.1927 31.8932 67.1016 32.1797C67.0495 32.362 66.9648 32.5638 66.8477 32.7852C66.7435 33.0065 66.6328 33.2214 66.5156 33.4297C66.3984 33.638 66.2943 33.8268 66.2031 33.9961C66.125 34.1654 66.0859 34.2891 66.0859 34.3672C66.0859 34.4323 66.0534 34.4844 65.9883 34.5234C65.9362 34.5495 65.8646 34.5755 65.7734 34.6016C65.6953 34.6276 65.6107 34.6602 65.5195 34.6992C65.4414 34.7253 65.3828 34.7643 65.3438 34.8164C65.2135 34.9987 65.1159 35.2266 65.0508 35.5C64.9987 35.7604 64.9076 36.0143 64.7773 36.2617C64.7643 36.2747 64.7188 36.3268 64.6406 36.418C64.5625 36.4961 64.4779 36.5938 64.3867 36.7109C64.2956 36.8151 64.2109 36.9193 64.1328 37.0234C64.0677 37.1276 64.0352 37.2122 64.0352 37.2773C64.0352 37.3424 64.0026 37.3945 63.9375 37.4336C63.8724 37.4596 63.7878 37.4922 63.6836 37.5312C63.5924 37.5703 63.4818 37.6159 63.3516 37.668C63.2344 37.7201 63.1237 37.7917 63.0195 37.8828C62.9674 37.9219 62.9219 37.9805 62.8828 38.0586C62.8438 38.1497 62.7917 38.2344 62.7266 38.3125C62.6745 38.3906 62.6094 38.4622 62.5312 38.5273C62.4531 38.5924 62.3555 38.625 62.2383 38.625C62.1732 38.625 62.0951 38.6185 62.0039 38.6055C61.9258 38.5924 61.8542 38.5859 61.7891 38.5859C61.6849 38.5859 61.6003 38.638 61.5352 38.7422C61.4701 38.8464 61.3854 38.8984 61.2812 38.8984C61.1641 38.8984 61.0794 38.8789 61.0273 38.8398C60.9883 38.8138 60.9492 38.7747 60.9102 38.7227C60.8841 38.6836 60.8581 38.638 60.832 38.5859C60.806 38.5339 60.7539 38.4883 60.6758 38.4492C60.5326 38.3841 60.3633 38.3516 60.168 38.3516C59.9727 38.3516 59.849 38.3385 59.7969 38.3125C59.7188 38.2474 59.6211 38.0911 59.5039 37.8438C59.3997 37.5964 59.263 37.362 59.0938 37.1406C58.9896 37.0234 58.8919 36.9258 58.8008 36.8477C58.7227 36.7695 58.6445 36.6979 58.5664 36.6328C58.4883 36.5547 58.4167 36.4701 58.3516 36.3789C58.2995 36.2747 58.2539 36.138 58.2148 35.9688C58.1888 35.8646 58.1367 35.793 58.0586 35.7539C57.9935 35.7148 57.9479 35.6432 57.9219 35.5391C57.8307 35.2917 57.7721 35.0768 57.7461 34.8945C57.7201 34.7122 57.6745 34.4844 57.6094 34.2109C57.6094 34.1589 57.5898 34.0807 57.5508 33.9766C57.5247 33.8594 57.4922 33.7422 57.4531 33.625C57.4271 33.4948 57.401 33.3711 57.375 33.2539C57.349 33.1237 57.3359 33.0195 57.3359 32.9414C57.3359 32.5768 57.3555 32.2122 57.3945 31.8477C57.4466 31.4831 57.4727 31.1445 57.4727 30.832C57.4727 30.6628 57.4792 30.5 57.4922 30.3438C57.5052 30.1875 57.5443 30.0182 57.6094 29.8359C57.6354 29.7969 57.6875 29.7253 57.7656 29.6211C57.8438 29.5169 57.8958 29.4453 57.9219 29.4062C58.013 29.0807 58.1107 28.7812 58.2148 28.5078C58.319 28.2214 58.4427 27.9284 58.5859 27.6289C58.7292 27.3164 58.8984 26.9714 59.0938 26.5938C59.2891 26.2031 59.5234 25.7344 59.7969 25.1875C59.8229 25.1354 59.8424 25.0638 59.8555 24.9727C59.8815 24.8685 59.9141 24.7969 59.9531 24.7578C59.9661 24.7448 59.9987 24.7253 60.0508 24.6992C60.1159 24.6732 60.181 24.6471 60.2461 24.6211C60.3242 24.582 60.3893 24.5495 60.4414 24.5234C60.5065 24.4844 60.5391 24.4453 60.5391 24.4062C60.5391 24.3802 60.5326 24.3477 60.5195 24.3086C60.5195 24.2695 60.5195 24.237 60.5195 24.2109C60.5195 24.2109 60.5781 24.1458 60.6953 24.0156C60.8125 23.8854 60.9492 23.7357 61.1055 23.5664C61.2617 23.3841 61.418 23.2083 61.5742 23.0391C61.7435 22.8698 61.8802 22.7591 61.9844 22.707C62.0885 22.6549 62.1927 22.6354 62.2969 22.6484C62.401 22.6484 62.4987 22.6224 62.5898 22.5703C62.707 22.4792 62.8112 22.349 62.9023 22.1797C62.9935 22.0104 63.0781 21.8932 63.1562 21.8281C63.2734 21.724 63.4167 21.6133 63.5859 21.4961C63.7552 21.3789 63.9115 21.2617 64.0547 21.1445C64.2109 21.0273 64.3411 20.9232 64.4453 20.832C64.5625 20.7279 64.6211 20.6432 64.6211 20.5781C64.6211 20.4089 64.5625 20.207 64.4453 19.9727C64.3281 19.7383 64.1914 19.5104 64.0352 19.2891C63.8919 19.0677 63.7617 18.8724 63.6445 18.7031C63.5273 18.5208 63.4688 18.3971 63.4688 18.332C63.4557 18.2409 63.4102 18.1432 63.332 18.0391C63.2539 17.9349 63.1693 17.8307 63.0781 17.7266C62.987 17.6094 62.9023 17.5052 62.8242 17.4141C62.7591 17.3229 62.7266 17.2383 62.7266 17.1602C62.7266 17.082 62.6875 16.9909 62.6094 16.8867C62.5312 16.7695 62.4466 16.6523 62.3555 16.5352C62.2643 16.418 62.1797 16.3073 62.1016 16.2031C62.0234 16.099 61.9844 16.0143 61.9844 15.9492C61.9844 15.6888 61.8346 15.3893 61.5352 15.0508C61.2487 14.6992 60.9167 14.2891 60.5391 13.8203C60.526 13.8073 60.5195 13.7878 60.5195 13.7617C60.5195 13.7357 60.5195 13.7031 60.5195 13.6641C60.5326 13.625 60.5391 13.5924 60.5391 13.5664C60.5391 13.5013 60.4609 13.3971 60.3047 13.2539C60.1615 13.1107 59.9987 12.9544 59.8164 12.7852C59.6341 12.6159 59.4648 12.4531 59.3086 12.2969C59.1654 12.1276 59.0938 11.9974 59.0938 11.9062C59.0807 11.7891 58.9701 11.6458 58.7617 11.4766C58.5664 11.3073 58.3516 11.1315 58.1172 10.9492C57.8828 10.7539 57.668 10.5651 57.4727 10.3828C57.2773 10.1875 57.1797 10.0182 57.1797 9.875C57.2188 9.6276 57.2904 9.48438 57.3945 9.44531C57.5117 9.40625 57.6875 9.35417 57.9219 9.28906C58 9.27604 58.1042 9.23698 58.2344 9.17188C58.3646 9.10677 58.5013 9.04167 58.6445 8.97656C58.7878 8.89844 58.9375 8.83333 59.0938 8.78125C59.25 8.72917 59.3932 8.70312 59.5234 8.70312C59.7448 8.70312 59.9857 8.7487 60.2461 8.83984C60.5195 8.91797 60.7604 9.01562 60.9688 9.13281C61.0078 9.15885 61.0599 9.21745 61.125 9.30859C61.1901 9.38672 61.2422 9.43229 61.2812 9.44531C61.4635 9.51042 61.6719 9.53646 61.9062 9.52344C62.1406 9.4974 62.3685 9.51693 62.5898 9.58203C62.681 9.60807 62.7591 9.66667 62.8242 9.75781C62.8893 9.84896 62.974 9.89453 63.0781 9.89453C63.1042 9.89453 63.1302 9.89453 63.1562 9.89453C63.1953 9.88151 63.2279 9.875 63.2539 9.875C63.306 9.875 63.4297 9.89453 63.625 9.93359C63.8203 9.95964 64.0482 9.99219 64.3086 10.0312C64.582 10.0703 64.862 10.1094 65.1484 10.1484C65.4479 10.1745 65.7148 10.1875 65.9492 10.1875C66.2747 10.1875 66.6589 10.1549 67.1016 10.0898C67.5443 10.0247 67.987 9.9401 68.4297 9.83594C68.8724 9.71875 69.2826 9.58203 69.6602 9.42578C70.0508 9.26953 70.3503 9.10026 70.5586 8.91797C70.6628 8.82682 70.7539 8.72266 70.832 8.60547C70.9102 8.48828 71.0078 8.3776 71.125 8.27344C71.3073 8.10417 71.5026 7.96745 71.7109 7.86328C71.9323 7.74609 72.1536 7.58984 72.375 7.39453C72.7135 7.09505 73.0977 6.74349 73.5273 6.33984C73.9701 5.92318 74.3542 5.51953 74.6797 5.12891C74.7578 5.03776 74.862 4.90755 74.9922 4.73828C75.1224 4.55599 75.2526 4.35417 75.3828 4.13281C75.513 3.89844 75.6367 3.65755 75.7539 3.41016C75.8711 3.14974 75.9622 2.90234 76.0273 2.66797C76.0534 2.40755 76.112 2.20573 76.2031 2.0625C76.3073 1.90625 76.4115 1.82812 76.5156 1.82812C76.724 1.82812 76.8281 2.05599 76.8281 2.51172C76.8281 2.51172 76.8151 2.60286 76.7891 2.78516C76.763 2.95443 76.7305 3.14974 76.6914 3.37109C76.6654 3.57943 76.6328 3.77474 76.5938 3.95703C76.5677 4.13932 76.5482 4.23047 76.5352 4.23047ZM66.2227 26.0664C66.2227 25.9492 66.2096 25.8646 66.1836 25.8125C66.1706 25.7474 66.1445 25.6888 66.1055 25.6367C66.0794 25.5716 66.0469 25.4935 66.0078 25.4023C65.9818 25.3112 65.9557 25.1875 65.9297 25.0312C65.8776 24.7708 65.8581 24.5104 65.8711 24.25C65.8841 23.9766 65.8581 23.7031 65.793 23.4297C65.7018 23.0781 65.5977 22.7721 65.4805 22.5117C65.3633 22.2383 65.2917 22.1016 65.2656 22.1016C65.0833 22.1016 64.9401 22.1471 64.8359 22.2383C64.7318 22.3294 64.6602 22.388 64.6211 22.4141C64.5039 22.4792 64.3607 22.5378 64.1914 22.5898C64.0352 22.6419 63.8854 22.7266 63.7422 22.8438C63.5859 22.987 63.3841 23.1953 63.1367 23.4688C62.8893 23.7292 62.6484 24.0026 62.4141 24.2891C62.1797 24.5625 61.9779 24.8099 61.8086 25.0312C61.6393 25.2396 61.5482 25.3503 61.5352 25.3633C61.3398 25.8711 61.2031 26.2357 61.125 26.457C61.0599 26.6784 61.0143 26.8477 60.9883 26.9648C60.9622 27.082 60.9427 27.1927 60.9297 27.2969C60.9297 27.388 60.8971 27.5573 60.832 27.8047C60.806 27.9089 60.7474 28.013 60.6562 28.1172C60.5651 28.2083 60.5195 28.3255 60.5195 28.4688C60.5195 28.5599 60.526 28.6445 60.5391 28.7227C60.5521 28.8008 60.5586 28.8789 60.5586 28.957C60.5586 29.0872 60.5326 29.2109 60.4805 29.3281C60.4414 29.4323 60.3958 29.5365 60.3438 29.6406C60.2917 29.7448 60.2396 29.849 60.1875 29.9531C60.1484 30.0573 60.1289 30.168 60.1289 30.2852C60.1289 30.4674 60.1419 30.7018 60.168 30.9883C60.207 31.2747 60.2461 31.5742 60.2852 31.8867C60.3242 32.1862 60.3633 32.4727 60.4023 32.7461C60.4544 33.0195 60.5 33.2214 60.5391 33.3516C60.5391 33.3906 60.5326 33.4297 60.5195 33.4688C60.5195 33.4948 60.5195 33.5273 60.5195 33.5664C60.5195 33.6185 60.5586 33.6966 60.6367 33.8008C60.7279 33.8919 60.793 33.9831 60.832 34.0742C60.9492 34.4128 61.0924 34.7253 61.2617 35.0117C61.431 35.2852 61.6003 35.526 61.7695 35.7344C61.9518 35.9427 62.1276 36.1055 62.2969 36.2227C62.4661 36.3398 62.6094 36.3984 62.7266 36.3984C62.8177 36.3984 62.9414 36.3138 63.0977 36.1445C63.2669 35.9622 63.4427 35.7474 63.625 35.5C63.8203 35.2396 64.0026 34.9727 64.1719 34.6992C64.3542 34.4128 64.5039 34.1589 64.6211 33.9375C64.8034 33.612 64.9857 33.2409 65.168 32.8242C65.3503 32.4076 65.4609 31.9974 65.5 31.5938C65.5 31.5156 65.5195 31.457 65.5586 31.418C65.5977 31.3789 65.6302 31.3464 65.6562 31.3203C65.7214 31.0599 65.7539 30.832 65.7539 30.6367C65.7539 30.4284 65.7669 30.2135 65.793 29.9922C65.806 29.7057 65.8385 29.3932 65.8906 29.0547C65.9427 28.7031 65.9883 28.3516 66.0273 28C66.0794 27.6484 66.125 27.3099 66.1641 26.9844C66.2031 26.6458 66.2227 26.3398 66.2227 26.0664ZM85.3438 33.1367C85.487 33.2799 85.5586 33.4102 85.5586 33.5273C85.5586 33.6055 85.526 33.6836 85.4609 33.7617C85.4089 33.8268 85.3438 33.8919 85.2656 33.957C85.1875 34.0091 85.1094 34.0677 85.0312 34.1328C84.9661 34.1849 84.9206 34.2435 84.8945 34.3086C84.7773 34.5951 84.5755 34.9141 84.2891 35.2656C84.0156 35.6042 83.7357 35.9622 83.4492 36.3398C83.293 36.5482 83.1107 36.8086 82.9023 37.1211C82.707 37.4206 82.4987 37.7005 82.2773 37.9609C82.2513 37.987 82.1992 38.0065 82.1211 38.0195C82.043 38.0456 81.9974 38.0716 81.9844 38.0977C81.8802 38.3581 81.7435 38.6055 81.5742 38.8398C81.418 39.0742 81.1836 39.1914 80.8711 39.1914C80.4935 39.1914 80.207 39.1003 80.0117 38.918C79.8164 38.7487 79.6797 38.5469 79.6016 38.3125C79.5234 38.0781 79.4779 37.8372 79.4648 37.5898C79.4648 37.3424 79.4648 37.1471 79.4648 37.0039C79.4648 36.5352 79.5039 36.0208 79.582 35.4609C79.6602 34.901 79.7448 34.3477 79.8359 33.8008C79.9401 33.2539 80.0312 32.7331 80.1094 32.2383C80.1875 31.7305 80.2266 31.3008 80.2266 30.9492H80.1484C80.0443 30.9492 79.9076 31.0664 79.7383 31.3008C79.569 31.5221 79.3737 31.8021 79.1523 32.1406C78.944 32.4792 78.7161 32.8438 78.4688 33.2344C78.2344 33.625 78 33.9831 77.7656 34.3086C77.6354 34.4779 77.4922 34.6471 77.3359 34.8164C77.1927 34.9857 77.0495 35.1354 76.9062 35.2656C76.776 35.3958 76.6654 35.5 76.5742 35.5781C76.4831 35.6562 76.4375 35.6888 76.4375 35.6758C76.4375 35.7018 76.4375 35.7344 76.4375 35.7734C76.4505 35.8125 76.457 35.8451 76.457 35.8711C76.457 35.9622 76.3984 36.0664 76.2812 36.1836C76.1771 36.2878 76.0599 36.3919 75.9297 36.4961C75.7995 36.5872 75.6758 36.6654 75.5586 36.7305C75.4544 36.7956 75.4023 36.8346 75.4023 36.8477C75.4023 36.8737 75.4023 36.9062 75.4023 36.9453C75.4154 36.9844 75.4219 37.0169 75.4219 37.043C75.4219 37.0951 75.3763 37.1276 75.2852 37.1406C75.207 37.1536 75.1549 37.1797 75.1289 37.2188C75.0898 37.3229 75.0508 37.4466 75.0117 37.5898C74.9857 37.7201 74.8815 37.7917 74.6992 37.8047C74.6081 37.8047 74.5104 37.8633 74.4062 37.9805C74.3021 38.0977 74.1979 38.2214 74.0938 38.3516C73.9896 38.4948 73.8854 38.625 73.7812 38.7422C73.6901 38.8724 73.6055 38.9505 73.5273 38.9766C73.2669 39.0547 73.0651 39.0938 72.9219 39.0938C72.7396 39.0938 72.5638 39.0221 72.3945 38.8789C72.2383 38.7357 72.1016 38.5729 71.9844 38.3906C71.8672 38.2214 71.7695 38.0521 71.6914 37.8828C71.6263 37.7135 71.5938 37.5964 71.5938 37.5312C71.5938 37.1797 71.6068 36.7956 71.6328 36.3789C71.6589 35.9622 71.6914 35.5521 71.7305 35.1484C71.7826 34.7318 71.8477 34.3477 71.9258 33.9961C72.0039 33.6445 72.1016 33.3581 72.2188 33.1367C72.2839 32.9935 72.3164 32.7917 72.3164 32.5312C72.3164 32.4401 72.3099 32.349 72.2969 32.2578C72.2969 32.1536 72.2969 32.0495 72.2969 31.9453C72.2969 31.7891 72.3099 31.6393 72.3359 31.4961C72.375 31.3398 72.4141 31.1641 72.4531 30.9688C72.5052 30.7734 72.5573 30.5456 72.6094 30.2852C72.6745 30.0247 72.7331 29.7122 72.7852 29.3477C72.8112 29.1003 72.8307 28.8529 72.8438 28.6055C72.8698 28.3581 72.9023 28.1172 72.9414 27.8828C73.0065 27.5182 73.0781 27.1276 73.1562 26.7109C73.2474 26.2943 73.293 25.8581 73.293 25.4023C73.293 25.3503 73.293 25.2786 73.293 25.1875C73.293 25.0964 73.2865 25.0117 73.2734 24.9336C73.2604 24.8424 73.2409 24.7643 73.2148 24.6992C73.2018 24.6341 73.1758 24.6016 73.1367 24.6016C73.0326 24.6016 72.9284 24.6602 72.8242 24.7773C72.7201 24.8945 72.6159 25.0312 72.5117 25.1875C72.4076 25.3438 72.3034 25.5 72.1992 25.6562C72.1081 25.8125 72.0169 25.9297 71.9258 26.0078C71.7956 26.125 71.6263 26.2227 71.418 26.3008C71.2227 26.3789 71.0534 26.4701 70.9102 26.5742C70.8581 26.6133 70.819 26.6719 70.793 26.75C70.7669 26.8151 70.7344 26.8802 70.6953 26.9453C70.6562 27.0104 70.5977 27.069 70.5195 27.1211C70.4544 27.1732 70.3568 27.1992 70.2266 27.1992C70.1745 27.1992 70.1224 27.1927 70.0703 27.1797C70.0312 27.1536 70.0117 27.0885 70.0117 26.9844C70.0117 26.737 70.1029 26.5286 70.2852 26.3594C70.4805 26.1771 70.6367 26.0078 70.7539 25.8516C70.806 25.7865 70.8255 25.7148 70.8125 25.6367C70.8125 25.5456 70.8451 25.4674 70.9102 25.4023C70.9753 25.3372 71.0794 25.2591 71.2227 25.168C71.3659 25.0768 71.5026 24.9661 71.6328 24.8359C71.6849 24.7708 71.7109 24.6992 71.7109 24.6211C71.7109 24.5299 71.7305 24.4518 71.7695 24.3867C71.8477 24.3086 71.9779 24.224 72.1602 24.1328C72.3555 24.0417 72.5182 23.9375 72.6484 23.8203C72.6875 23.7812 72.7396 23.7161 72.8047 23.625C72.8698 23.5208 72.9414 23.4232 73.0195 23.332C73.0977 23.2279 73.1758 23.1367 73.2539 23.0586C73.3451 22.9805 73.4362 22.9414 73.5273 22.9414C73.5924 22.9414 73.6641 22.8893 73.7422 22.7852C73.8333 22.668 73.9245 22.5378 74.0156 22.3945C74.1068 22.2383 74.1979 22.0885 74.2891 21.9453C74.3802 21.8021 74.4648 21.6979 74.543 21.6328C74.6341 21.5547 74.7578 21.4961 74.9141 21.457C75.0703 21.4049 75.2396 21.3789 75.4219 21.3789C75.6302 21.3789 75.8125 21.418 75.9688 21.4961C76.125 21.5612 76.2031 21.6979 76.2031 21.9062C76.2031 21.9974 76.1901 22.1146 76.1641 22.2578C76.151 22.401 76.1315 22.5443 76.1055 22.6875C76.0794 22.8307 76.0534 22.974 76.0273 23.1172C76.0143 23.2474 76.0078 23.3451 76.0078 23.4102C76.0078 23.5273 76.0208 23.6185 76.0469 23.6836C76.0859 23.7487 76.1055 23.8268 76.1055 23.918C76.1055 23.9701 76.0664 24.0807 75.9883 24.25C75.9102 24.4193 75.8255 24.6276 75.7344 24.875C75.6562 25.1094 75.5781 25.3763 75.5 25.6758C75.4219 25.9622 75.3828 26.2487 75.3828 26.5352C75.3828 26.7305 75.3893 26.9128 75.4023 27.082C75.4154 27.2513 75.4219 27.4206 75.4219 27.5898C75.4219 27.9023 75.3763 28.1953 75.2852 28.4688C75.2721 28.4948 75.2396 28.5208 75.1875 28.5469C75.1484 28.5599 75.1289 28.599 75.1289 28.6641C75.1289 28.7161 75.1354 28.7943 75.1484 28.8984C75.1615 28.9896 75.168 29.0938 75.168 29.2109C75.168 29.3542 75.1484 29.4518 75.1094 29.5039C75.0833 29.543 75.0443 29.5755 74.9922 29.6016C74.9531 29.6146 74.9141 29.6341 74.875 29.6602C74.849 29.6862 74.8359 29.7513 74.8359 29.8555C74.8359 29.9727 74.8555 30.0898 74.8945 30.207C74.9466 30.3112 74.9727 30.4674 74.9727 30.6758C74.9727 30.8581 74.9401 31.0729 74.875 31.3203C74.8099 31.5677 74.7383 31.8542 74.6602 32.1797C74.582 32.5052 74.5104 32.8698 74.4453 33.2734C74.3802 33.6641 74.3477 34.0938 74.3477 34.5625C74.3477 34.9661 74.3607 35.2982 74.3867 35.5586C74.4258 35.806 74.4974 35.9297 74.6016 35.9297C74.7969 35.9297 75.0247 35.819 75.2852 35.5977C75.5586 35.3633 75.8451 35.0638 76.1445 34.6992C76.444 34.3216 76.7435 33.9115 77.043 33.4688C77.3555 33.013 77.6419 32.5638 77.9023 32.1211C78.1758 31.6654 78.4102 31.2487 78.6055 30.8711C78.8138 30.4805 78.9701 30.168 79.0742 29.9336C79.3737 29.2174 79.6536 28.5143 79.9141 27.8242C80.1875 27.1341 80.4935 26.3789 80.832 25.5586C80.8581 25.4544 80.8711 25.3503 80.8711 25.2461C80.8711 25.1289 80.8711 25.0117 80.8711 24.8945V24.4453C80.8711 24.1589 80.9102 23.944 80.9883 23.8008C81.0794 23.6576 81.1901 23.5534 81.3203 23.4883C81.4635 23.4102 81.6198 23.3516 81.7891 23.3125C81.9583 23.2604 82.1211 23.1823 82.2773 23.0781C82.4596 22.9609 82.6354 22.8242 82.8047 22.668C82.974 22.5117 83.1367 22.362 83.293 22.2188C83.4622 22.0755 83.625 21.9518 83.7812 21.8477C83.9505 21.7305 84.1328 21.6589 84.3281 21.6328C84.3281 21.7109 84.3086 21.7826 84.2695 21.8477C84.2305 21.8997 84.1849 21.9648 84.1328 22.043C84.0807 22.1081 84.0286 22.1862 83.9766 22.2773C83.9245 22.3685 83.8919 22.4922 83.8789 22.6484C83.8659 22.7656 83.8333 22.9349 83.7812 23.1562C83.7422 23.3646 83.6771 23.5859 83.5859 23.8203C83.5729 23.8464 83.5469 23.8594 83.5078 23.8594C83.4688 23.8464 83.4492 23.8789 83.4492 23.957C83.4362 24.1133 83.4167 24.3802 83.3906 24.7578C83.3646 25.1354 83.332 25.5 83.293 25.8516C83.2669 26.099 83.1888 26.3594 83.0586 26.6328C82.9284 26.8932 82.8568 27.1732 82.8438 27.4727C82.8438 27.5378 82.8503 27.5768 82.8633 27.5898C82.8893 27.6029 82.9023 27.6354 82.9023 27.6875C82.9023 27.8438 82.8438 28 82.7266 28.1562C82.6224 28.2995 82.5703 28.4232 82.5703 28.5273C82.5703 28.6966 82.5898 28.8789 82.6289 29.0742C82.681 29.2695 82.707 29.4583 82.707 29.6406C82.707 29.862 82.668 30.0768 82.5898 30.2852C82.5117 30.4805 82.4531 30.7018 82.4141 30.9492C82.362 31.1966 82.3359 31.444 82.3359 31.6914C82.3359 31.9388 82.3164 32.1797 82.2773 32.4141C82.1992 32.8958 82.1081 33.3646 82.0039 33.8203C81.8997 34.263 81.8477 34.6341 81.8477 34.9336C81.8477 35.0898 81.8672 35.2396 81.9062 35.3828C81.9453 35.513 81.9844 35.6302 82.0234 35.7344C82.0755 35.8385 82.1146 35.9232 82.1406 35.9883C82.1797 36.0534 82.1992 36.0859 82.1992 36.0859C82.2904 36.0859 82.4076 36.0534 82.5508 35.9883C82.694 35.9102 82.8307 35.8255 82.9609 35.7344C83.0911 35.6432 83.2018 35.5521 83.293 35.4609C83.3971 35.3698 83.4492 35.3047 83.4492 35.2656C83.4492 35.2396 83.4427 35.2135 83.4297 35.1875C83.4297 35.1484 83.4297 35.1159 83.4297 35.0898C83.4297 35.0117 83.4818 34.9661 83.5859 34.9531C83.6901 34.9401 83.7422 34.8945 83.7422 34.8164C83.7422 34.7904 83.7357 34.7578 83.7227 34.7188C83.7227 34.6797 83.7227 34.6471 83.7227 34.6211C83.7227 34.569 83.7552 34.4974 83.8203 34.4062C83.8984 34.3151 83.9766 34.224 84.0547 34.1328C84.1458 34.0286 84.2305 33.944 84.3086 33.8789C84.3867 33.8008 84.4388 33.7487 84.4648 33.7227C84.4909 33.6966 84.5104 33.651 84.5234 33.5859C84.5495 33.5208 84.582 33.4557 84.6211 33.3906C84.6732 33.3125 84.7448 33.2474 84.8359 33.1953C84.9271 33.1432 85.0508 33.1172 85.207 33.1172C85.2331 33.1172 85.2526 33.1237 85.2656 33.1367C85.2917 33.1367 85.3177 33.1367 85.3438 33.1367ZM97.2773 22.8047V22.8633C97.2773 22.9674 97.2057 23.1497 97.0625 23.4102C96.9323 23.6576 96.776 23.9115 96.5938 24.1719C96.4115 24.4193 96.2227 24.6406 96.0273 24.8359C95.8451 25.0312 95.6953 25.1289 95.5781 25.1289C95.3828 25.1289 95.2266 25.0768 95.1094 24.9727C94.9922 24.8555 94.8945 24.7188 94.8164 24.5625C94.7383 24.4062 94.6536 24.25 94.5625 24.0938C94.4844 23.9245 94.3737 23.7812 94.2305 23.6641C94.2044 23.651 94.1393 23.612 94.0352 23.5469C93.944 23.4818 93.8398 23.4167 93.7227 23.3516C93.6185 23.2865 93.5143 23.2279 93.4102 23.1758C93.306 23.1237 93.2344 23.0977 93.1953 23.0977C92.9609 23.0977 92.7656 23.1432 92.6094 23.2344C92.4661 23.3255 92.3424 23.4492 92.2383 23.6055C92.1471 23.7487 92.0625 23.918 91.9844 24.1133C91.9062 24.2956 91.8216 24.4844 91.7305 24.6797C91.6654 24.8229 91.5547 24.9987 91.3984 25.207C91.2422 25.4023 91.1576 25.5977 91.1445 25.793C91.1445 25.819 91.1445 25.8516 91.1445 25.8906C91.1576 25.9297 91.1641 25.9622 91.1641 25.9883C91.1641 26.0013 91.1185 26.0599 91.0273 26.1641C90.9492 26.2682 90.8971 26.3594 90.8711 26.4375C90.806 26.5938 90.7539 26.7891 90.7148 27.0234C90.6888 27.2578 90.6562 27.5052 90.6172 27.7656C90.5911 28.026 90.5586 28.2865 90.5195 28.5469C90.4935 28.7943 90.4609 29.0156 90.4219 29.2109C90.4089 29.263 90.3763 29.3737 90.3242 29.543C90.2721 29.6992 90.2201 29.8815 90.168 30.0898C90.1159 30.2982 90.0638 30.5195 90.0117 30.7539C89.9727 30.9883 89.9531 31.2031 89.9531 31.3984C89.9531 31.5938 89.9596 31.7826 89.9727 31.9648C89.9857 32.1341 89.9922 32.2904 89.9922 32.4336C89.9922 32.694 89.9661 32.9805 89.9141 33.293C89.875 33.5924 89.8555 33.9049 89.8555 34.2305C89.8555 34.4258 89.875 34.6276 89.9141 34.8359C89.9661 35.0312 89.9922 35.2266 89.9922 35.4219C89.9922 35.487 89.9857 35.5521 89.9727 35.6172C89.9596 35.6693 89.9531 35.7279 89.9531 35.793C89.9531 35.832 89.9661 35.8776 89.9922 35.9297C89.9922 35.9557 90.0247 36.0013 90.0898 36.0664C90.1549 36.1185 90.2331 36.1771 90.3242 36.2422C90.4154 36.3073 90.513 36.3659 90.6172 36.418C90.7214 36.4701 90.819 36.4961 90.9102 36.4961C91.0404 36.4961 91.2096 36.431 91.418 36.3008C91.6263 36.1576 91.8411 35.9948 92.0625 35.8125C92.2839 35.6172 92.4922 35.4219 92.6875 35.2266C92.8958 35.0312 93.0651 34.875 93.1953 34.7578C93.3646 34.6016 93.5273 34.4518 93.6836 34.3086C93.8529 34.1523 94.0352 33.9635 94.2305 33.7422C94.2435 33.7161 94.2891 33.6901 94.3672 33.6641C94.4453 33.638 94.4909 33.612 94.5039 33.5859C94.582 33.4297 94.6341 33.332 94.6602 33.293C94.6992 33.2539 94.7904 33.1562 94.9336 33C95.0117 32.9219 95.0964 32.8112 95.1875 32.668C95.2917 32.5247 95.4023 32.3815 95.5195 32.2383C95.6497 32.082 95.7799 31.9518 95.9102 31.8477C96.0534 31.7435 96.1966 31.6914 96.3398 31.6914C96.3919 31.6914 96.4635 31.7109 96.5547 31.75C96.6589 31.7891 96.7109 31.8802 96.7109 32.0234C96.7109 32.1667 96.6719 32.2904 96.5938 32.3945C96.5156 32.4987 96.418 32.5964 96.3008 32.6875C96.1966 32.7656 96.0859 32.8438 95.9688 32.9219C95.8516 33 95.7539 33.0781 95.6758 33.1562C95.5716 33.2604 95.4935 33.3841 95.4414 33.5273C95.3893 33.6576 95.3242 33.7747 95.2461 33.8789C95.0117 34.1784 94.7253 34.4714 94.3867 34.7578C94.0482 35.0443 93.7487 35.3307 93.4883 35.6172C93.2409 35.8776 93.013 36.1445 92.8047 36.418C92.6094 36.6784 92.3555 36.9062 92.043 37.1016C91.9909 37.1276 91.9128 37.1471 91.8086 37.1602C91.7174 37.1732 91.6458 37.1992 91.5938 37.2383C91.4766 37.3294 91.3724 37.4596 91.2812 37.6289C91.2031 37.7852 91.112 37.8958 91.0078 37.9609C90.9036 38.0391 90.7214 38.1107 90.4609 38.1758C90.2135 38.2539 90.0117 38.332 89.8555 38.4102C89.8164 38.4232 89.7839 38.4688 89.7578 38.5469C89.7448 38.625 89.7253 38.6706 89.6992 38.6836C89.6732 38.6966 89.6146 38.7096 89.5234 38.7227C89.4323 38.7487 89.3281 38.7682 89.2109 38.7812C89.1068 38.7943 89.0026 38.8073 88.8984 38.8203C88.7943 38.8333 88.7227 38.8398 88.6836 38.8398C88.6445 38.8398 88.5729 38.8138 88.4688 38.7617C88.3776 38.7227 88.2799 38.6771 88.1758 38.625C88.0846 38.5729 88 38.5208 87.9219 38.4688C87.8438 38.4297 87.8047 38.4102 87.8047 38.4102C87.7005 38.293 87.6419 38.1628 87.6289 38.0195C87.6289 37.8763 87.5898 37.7135 87.5117 37.5312C87.3294 37.1406 87.1797 36.7826 87.0625 36.457C86.9583 36.1315 86.9062 35.7474 86.9062 35.3047C86.9062 35.2266 86.9062 35.1224 86.9062 34.9922C86.9193 34.862 86.9323 34.7253 86.9453 34.582C86.9714 34.4388 87.0039 34.3021 87.043 34.1719C87.0951 34.0417 87.1536 33.944 87.2188 33.8789C87.2188 33.7617 87.1927 33.6445 87.1406 33.5273C87.0885 33.3971 87.0625 33.2734 87.0625 33.1562C87.0755 33.0391 87.1016 32.9154 87.1406 32.7852C87.1797 32.6549 87.2057 32.5312 87.2188 32.4141C87.2318 32.1927 87.2513 31.9518 87.2773 31.6914C87.3034 31.418 87.3359 31.1445 87.375 30.8711C87.4141 30.5977 87.4661 30.3307 87.5312 30.0703C87.6094 29.8099 87.7005 29.5755 87.8047 29.3672C87.8307 29.3021 87.8438 29.2044 87.8438 29.0742V28.8789C87.8438 28.6966 87.8893 28.4948 87.9805 28.2734C88.0846 28.0521 88.2018 27.8307 88.332 27.6094C88.4753 27.388 88.6185 27.1797 88.7617 26.9844C88.9049 26.776 89.0221 26.5938 89.1133 26.4375C89.1393 26.3854 89.1589 26.3203 89.1719 26.2422C89.1849 26.151 89.2109 26.0729 89.25 26.0078C89.276 25.9688 89.3216 25.9427 89.3867 25.9297C89.4648 25.9167 89.5169 25.8906 89.543 25.8516C89.7643 25.5781 89.9922 25.3047 90.2266 25.0312C90.4609 24.7448 90.6758 24.4388 90.8711 24.1133C90.9232 24.0221 90.9688 23.918 91.0078 23.8008C91.0469 23.6706 91.0924 23.5469 91.1445 23.4297C91.1966 23.3125 91.2617 23.2083 91.3398 23.1172C91.431 23.026 91.5612 22.9674 91.7305 22.9414C91.7435 22.9414 91.7826 22.9089 91.8477 22.8438C91.9258 22.7656 92.0104 22.681 92.1016 22.5898C92.2057 22.4857 92.3034 22.388 92.3945 22.2969C92.4857 22.1927 92.5573 22.1146 92.6094 22.0625C92.7656 21.9193 92.9284 21.7565 93.0977 21.5742C93.2799 21.3919 93.4688 21.2161 93.6641 21.0469C93.8594 20.8776 94.0482 20.7409 94.2305 20.6367C94.4258 20.5195 94.6081 20.4609 94.7773 20.4609C95.1029 20.4609 95.3633 20.5651 95.5586 20.7734C95.7669 20.9818 96.0013 21.2161 96.2617 21.4766C96.3138 21.5417 96.3984 21.6263 96.5156 21.7305C96.6328 21.8346 96.7435 21.9518 96.8477 22.082C96.9648 22.2122 97.0625 22.3424 97.1406 22.4727C97.2318 22.6029 97.2773 22.7135 97.2773 22.8047ZM111.164 32.8633C111.255 32.9544 111.301 33.0586 111.301 33.1758C111.301 33.3711 111.242 33.5469 111.125 33.7031C111.008 33.8464 110.858 33.9896 110.676 34.1328C110.507 34.263 110.318 34.3997 110.109 34.543C109.914 34.6862 109.732 34.8555 109.562 35.0508C109.341 35.3112 109.081 35.6107 108.781 35.9492C108.495 36.2747 108.267 36.6068 108.098 36.9453C108.072 37.0104 107.987 37.1341 107.844 37.3164C107.714 37.4987 107.551 37.694 107.355 37.9023C107.173 38.1107 106.965 38.293 106.73 38.4492C106.509 38.6055 106.294 38.6836 106.086 38.6836C105.943 38.6836 105.799 38.6576 105.656 38.6055C105.526 38.5664 105.402 38.5078 105.285 38.4297C105.168 38.3646 105.07 38.2865 104.992 38.1953C104.927 38.1172 104.895 38.0391 104.895 37.9609C104.895 37.8438 104.94 37.7266 105.031 37.6094C105.135 37.4922 105.188 37.3099 105.188 37.0625C105.188 36.9974 105.174 36.9518 105.148 36.9258C105.135 36.8997 105.116 36.8672 105.09 36.8281C105.077 36.7891 105.064 36.737 105.051 36.6719C105.038 36.6068 105.031 36.5026 105.031 36.3594C105.031 36.2161 105.051 36.0664 105.09 35.9102C105.142 35.7409 105.194 35.5716 105.246 35.4023C105.311 35.2201 105.363 35.0443 105.402 34.875C105.454 34.6927 105.48 34.5169 105.48 34.3477C105.48 34.3086 105.474 34.2695 105.461 34.2305C105.461 34.1784 105.461 34.1328 105.461 34.0938C105.461 34.0156 105.48 33.8984 105.52 33.7422C105.559 33.5859 105.604 33.4167 105.656 33.2344C105.708 33.0521 105.754 32.8568 105.793 32.6484C105.832 32.4271 105.852 32.2188 105.852 32.0234C105.852 31.776 105.826 31.5677 105.773 31.3984C105.63 31.4505 105.507 31.5286 105.402 31.6328C105.298 31.724 105.201 31.8346 105.109 31.9648C105.031 32.082 104.947 32.2122 104.855 32.3555C104.777 32.4857 104.693 32.6094 104.602 32.7266C104.549 32.7917 104.458 32.8763 104.328 32.9805C104.198 33.0846 104.061 33.1953 103.918 33.3125C103.788 33.4297 103.671 33.5469 103.566 33.6641C103.462 33.7682 103.41 33.8529 103.41 33.918C103.41 33.944 103.417 33.9766 103.43 34.0156C103.443 34.0547 103.449 34.0872 103.449 34.1133C103.449 34.1523 103.417 34.2109 103.352 34.2891C103.286 34.3672 103.215 34.4518 103.137 34.543C103.072 34.6211 103.007 34.6992 102.941 34.7773C102.876 34.8424 102.844 34.888 102.844 34.9141C102.831 35.0573 102.72 35.194 102.512 35.3242C102.303 35.4414 102.121 35.5911 101.965 35.7734C101.848 35.9036 101.75 36.0404 101.672 36.1836C101.594 36.3268 101.522 36.457 101.457 36.5742C101.392 36.6914 101.327 36.7891 101.262 36.8672C101.197 36.9323 101.118 36.9648 101.027 36.9648C101.001 36.9648 100.956 36.9583 100.891 36.9453C100.839 36.9323 100.793 36.9258 100.754 36.9258C100.663 36.9258 100.604 36.9844 100.578 37.1016C100.565 37.2188 100.546 37.3099 100.52 37.375C100.415 37.5443 100.292 37.6745 100.148 37.7656C100.018 37.8438 99.849 37.9609 99.6406 38.1172C99.5495 38.1823 99.4844 38.2539 99.4453 38.332C99.4193 38.4232 99.3802 38.5013 99.3281 38.5664C99.276 38.6315 99.1914 38.6836 99.0742 38.7227C98.9701 38.7747 98.8008 38.8008 98.5664 38.8008C98.4362 38.8008 98.3125 38.7878 98.1953 38.7617C98.0781 38.7357 98.0195 38.6966 98.0195 38.6445C98.0195 38.6185 98.026 38.5859 98.0391 38.5469C98.0521 38.5078 98.0586 38.4753 98.0586 38.4492C98.0586 38.4362 98.0326 38.4102 97.9805 38.3711C97.9284 38.332 97.8633 38.2734 97.7852 38.1953C97.7201 38.1302 97.6615 38.0391 97.6094 37.9219C97.5573 37.7917 97.5312 37.6354 97.5312 37.4531C97.5312 37.2448 97.5508 37.0299 97.5898 36.8086C97.6419 36.5742 97.694 36.3464 97.7461 36.125C97.8112 35.9036 97.8698 35.6953 97.9219 35.5C97.974 35.2917 98.013 35.0964 98.0391 34.9141C98.0911 34.4844 98.1172 34.0482 98.1172 33.6055C98.1172 33.1628 98.1888 32.7656 98.332 32.4141C98.3971 32.2839 98.4688 32.1081 98.5469 31.8867C98.625 31.6654 98.6966 31.4049 98.7617 31.1055C98.7747 31.0273 98.7943 30.9167 98.8203 30.7734C98.8464 30.6172 98.8789 30.4479 98.918 30.2656C98.957 30.0833 98.9961 29.901 99.0352 29.7188C99.0872 29.5234 99.1458 29.3542 99.2109 29.2109C99.237 29.1719 99.2826 29.1263 99.3477 29.0742C99.4258 29.0091 99.4779 28.957 99.5039 28.918C99.5299 28.8398 99.543 28.7552 99.543 28.6641C99.556 28.5599 99.5885 28.4557 99.6406 28.3516C99.6667 28.2995 99.7188 28.2474 99.7969 28.1953C99.875 28.1302 99.9206 28.0781 99.9336 28.0391C99.9987 27.9219 100.044 27.7786 100.07 27.6094C100.096 27.4401 100.148 27.2969 100.227 27.1797C100.279 27.1016 100.37 27.0365 100.5 26.9844C100.63 26.9193 100.734 26.8346 100.812 26.7305C100.878 26.6393 100.923 26.5417 100.949 26.4375C100.988 26.3333 101.034 26.2422 101.086 26.1641C101.229 26.0078 101.346 25.8711 101.438 25.7539C101.542 25.6237 101.633 25.5065 101.711 25.4023C101.802 25.2982 101.887 25.2005 101.965 25.1094C102.043 25.0182 102.141 24.9271 102.258 24.8359C102.336 24.7839 102.427 24.6862 102.531 24.543C102.648 24.3997 102.753 24.3021 102.844 24.25C102.948 24.2109 103.039 24.1784 103.117 24.1523C103.208 24.1263 103.312 24.0677 103.43 23.9766C103.456 23.9505 103.482 23.8984 103.508 23.8203C103.534 23.7292 103.56 23.6771 103.586 23.6641C103.677 23.625 103.762 23.5924 103.84 23.5664C103.931 23.5404 104.035 23.4753 104.152 23.3711C104.296 23.2409 104.406 23.1107 104.484 22.9805C104.562 22.8503 104.654 22.7396 104.758 22.6484C104.862 22.5703 104.979 22.5182 105.109 22.4922C105.24 22.4661 105.357 22.4206 105.461 22.3555C105.656 22.2513 105.852 22.1146 106.047 21.9453C106.255 21.763 106.47 21.5872 106.691 21.418C106.913 21.2357 107.141 21.0859 107.375 20.9688C107.622 20.8385 107.876 20.7734 108.137 20.7734C108.306 20.7734 108.475 20.7604 108.645 20.7344C108.827 20.6953 108.996 20.6758 109.152 20.6758C109.296 20.6758 109.426 20.7018 109.543 20.7539C109.66 20.806 109.719 20.9167 109.719 21.0859C109.719 21.5807 109.66 22.1341 109.543 22.7461C109.426 23.3581 109.296 24.0156 109.152 24.7188C109.022 25.4219 108.898 26.1641 108.781 26.9453C108.677 27.7266 108.625 28.5339 108.625 29.3672C108.625 29.3932 108.632 29.4323 108.645 29.4844C108.671 29.5365 108.684 29.6146 108.684 29.7188C108.684 29.7969 108.664 29.8945 108.625 30.0117C108.599 30.1159 108.566 30.2266 108.527 30.3438C108.488 30.4479 108.449 30.5521 108.41 30.6562C108.384 30.7604 108.371 30.8516 108.371 30.9297C108.371 31.0599 108.371 31.1901 108.371 31.3203C108.384 31.4505 108.391 31.5677 108.391 31.6719C108.391 31.8932 108.365 32.1406 108.312 32.4141C108.26 32.6875 108.195 32.974 108.117 33.2734C108.052 33.5599 107.993 33.8464 107.941 34.1328C107.889 34.4193 107.863 34.6862 107.863 34.9336C107.863 35.0638 107.87 35.1875 107.883 35.3047C107.896 35.4089 107.922 35.513 107.961 35.6172C108.13 35.5391 108.267 35.4414 108.371 35.3242C108.488 35.207 108.592 35.0768 108.684 34.9336C108.788 34.7773 108.892 34.6146 108.996 34.4453C109.1 34.263 109.237 34.0742 109.406 33.8789C109.471 33.8008 109.562 33.6966 109.68 33.5664C109.797 33.4362 109.921 33.3125 110.051 33.1953C110.181 33.0781 110.318 32.974 110.461 32.8828C110.604 32.7917 110.741 32.7461 110.871 32.7461C110.962 32.7461 111.06 32.7852 111.164 32.8633ZM106.633 22.8047C106.594 22.8047 106.555 22.8047 106.516 22.8047C106.477 22.7917 106.444 22.7852 106.418 22.7852C106.223 22.7852 106.073 22.8438 105.969 22.9609C105.878 23.0651 105.799 23.1172 105.734 23.1172C105.708 23.1172 105.676 23.1172 105.637 23.1172C105.598 23.1042 105.559 23.0977 105.52 23.0977C105.454 23.0977 105.422 23.1367 105.422 23.2148C105.422 23.2799 105.389 23.332 105.324 23.3711C105.272 23.4362 105.201 23.4688 105.109 23.4688C105.018 23.4557 104.947 23.4753 104.895 23.5273C104.829 23.5924 104.764 23.6966 104.699 23.8398C104.647 23.9701 104.562 24.1068 104.445 24.25C104.341 24.3672 104.211 24.4714 104.055 24.5625C103.911 24.6536 103.801 24.7448 103.723 24.8359C103.697 24.888 103.671 24.9661 103.645 25.0703C103.632 25.1615 103.612 25.2331 103.586 25.2852C103.482 25.4674 103.352 25.6888 103.195 25.9492C103.052 26.1966 102.896 26.457 102.727 26.7305C102.557 27.0039 102.388 27.2708 102.219 27.5312C102.062 27.7786 101.932 28 101.828 28.1953C101.724 28.3776 101.652 28.5924 101.613 28.8398C101.574 29.0872 101.542 29.3477 101.516 29.6211C101.503 29.8815 101.49 30.1354 101.477 30.3828C101.464 30.6172 101.438 30.8125 101.398 30.9688C101.151 31.8281 100.917 32.694 100.695 33.5664C100.487 34.4258 100.383 35.2591 100.383 36.0664C100.656 36.0273 100.865 35.9232 101.008 35.7539C101.164 35.5716 101.288 35.3698 101.379 35.1484C101.47 34.9271 101.555 34.7122 101.633 34.5039C101.711 34.2956 101.822 34.1393 101.965 34.0352C102.069 33.9701 102.173 33.8789 102.277 33.7617C102.395 33.6445 102.492 33.5339 102.57 33.4297C102.609 33.3776 102.629 33.3125 102.629 33.2344C102.629 33.1432 102.655 33.0651 102.707 33C102.785 32.9089 102.876 32.8112 102.98 32.707C103.098 32.6029 103.215 32.4987 103.332 32.3945C103.449 32.2904 103.553 32.1927 103.645 32.1016C103.749 31.9974 103.827 31.9128 103.879 31.8477C103.931 31.7826 103.957 31.6849 103.957 31.5547C103.97 31.4115 103.99 31.3073 104.016 31.2422C104.146 30.9948 104.289 30.7734 104.445 30.5781C104.602 30.3698 104.751 30.1549 104.895 29.9336C105.129 29.569 105.324 29.2109 105.48 28.8594C105.65 28.5078 105.793 28.1497 105.91 27.7852C106.027 27.4206 106.132 27.0495 106.223 26.6719C106.314 26.2812 106.405 25.8646 106.496 25.4219C106.548 25.1615 106.607 24.8815 106.672 24.582C106.75 24.2826 106.789 23.9766 106.789 23.6641C106.789 23.3385 106.737 23.0521 106.633 22.8047ZM118.859 22.0625C118.833 22.1667 118.768 22.362 118.664 22.6484C118.56 22.9219 118.482 23.2083 118.43 23.5078C118.352 23.9505 118.319 24.3867 118.332 24.8164C118.345 25.2461 118.332 25.6432 118.293 26.0078C118.228 26.5026 118.13 26.9844 118 27.4531C117.883 27.9219 117.785 28.4036 117.707 28.8984C117.629 29.3542 117.564 29.6927 117.512 29.9141C117.473 30.1354 117.434 30.3307 117.395 30.5C117.368 30.6693 117.349 30.8516 117.336 31.0469C117.323 31.2422 117.316 31.5286 117.316 31.9062C117.316 32.0495 117.316 32.1797 117.316 32.2969C117.329 32.401 117.336 32.5052 117.336 32.6094C117.336 32.7917 117.297 32.9674 117.219 33.1367C117.141 33.293 117.102 33.4622 117.102 33.6445C117.102 33.7878 117.115 33.9375 117.141 34.0938C117.167 34.25 117.18 34.4062 117.18 34.5625C117.18 34.7057 117.16 34.8164 117.121 34.8945C117.095 34.9727 117.056 35.0312 117.004 35.0703C116.965 35.1094 116.919 35.1419 116.867 35.168C116.828 35.181 116.789 35.2135 116.75 35.2656C116.698 35.3568 116.639 35.4935 116.574 35.6758C116.522 35.8451 116.483 35.9492 116.457 35.9883C116.392 36.0664 116.301 36.1185 116.184 36.1445C116.066 36.1706 115.962 36.2161 115.871 36.2812C115.676 36.4375 115.454 36.6589 115.207 36.9453C114.973 37.2188 114.738 37.4987 114.504 37.7852C114.283 38.0586 114.074 38.293 113.879 38.4883C113.684 38.6966 113.534 38.8008 113.43 38.8008C113.365 38.8008 113.312 38.7878 113.273 38.7617C113.247 38.7487 113.234 38.6966 113.234 38.6055C113.234 38.4883 113.267 38.3841 113.332 38.293C113.397 38.2018 113.469 38.1042 113.547 38C113.638 37.9089 113.723 37.8112 113.801 37.707C113.892 37.5898 113.957 37.4596 113.996 37.3164V37.2969C113.996 37.0365 114.042 36.8281 114.133 36.6719C114.224 36.5156 114.27 36.4049 114.27 36.3398C114.27 36.2617 114.243 36.2096 114.191 36.1836C114.139 36.1576 114.113 36.112 114.113 36.0469C114.113 35.9948 114.126 35.9232 114.152 35.832C114.191 35.7279 114.23 35.6172 114.27 35.5C114.309 35.3828 114.341 35.2656 114.367 35.1484C114.406 35.0312 114.426 34.9401 114.426 34.875C114.426 34.7188 114.406 34.5885 114.367 34.4844C114.341 34.3672 114.328 34.2435 114.328 34.1133C114.328 33.931 114.387 33.7617 114.504 33.6055C114.634 33.4492 114.699 33.319 114.699 33.2148C114.686 33.1628 114.68 33.1107 114.68 33.0586C114.68 33.0065 114.68 32.9479 114.68 32.8828C114.68 32.5573 114.712 32.2383 114.777 31.9258C114.855 31.6133 114.94 31.3203 115.031 31.0469C115.122 30.7734 115.201 30.526 115.266 30.3047C115.344 30.0833 115.383 29.9076 115.383 29.7773C115.383 29.7122 115.376 29.6667 115.363 29.6406V29.5625C115.363 29.4193 115.337 29.276 115.285 29.1328C115.246 28.9896 115.227 28.8464 115.227 28.7031C115.227 28.5729 115.266 28.4297 115.344 28.2734C115.435 28.1042 115.493 27.9284 115.52 27.7461C115.572 27.4466 115.598 27.0951 115.598 26.6914C115.598 26.2747 115.617 25.8971 115.656 25.5586C115.682 25.2852 115.741 25.0312 115.832 24.7969C115.923 24.5625 115.969 24.4258 115.969 24.3867C115.904 24.2695 115.826 24.1654 115.734 24.0742C115.643 23.9701 115.565 23.918 115.5 23.918C115.396 23.918 115.298 23.957 115.207 24.0352C115.116 24.1133 115.025 24.2109 114.934 24.3281C114.855 24.4323 114.777 24.5495 114.699 24.6797C114.621 24.7969 114.549 24.8945 114.484 24.9727C114.38 25.1029 114.217 25.2721 113.996 25.4805C113.788 25.6888 113.612 25.8646 113.469 26.0078C113.378 26.112 113.306 26.2422 113.254 26.3984C113.202 26.5417 113.085 26.6133 112.902 26.6133C112.85 26.6133 112.805 26.6068 112.766 26.5938C112.74 26.5677 112.727 26.5091 112.727 26.418C112.727 26.3008 112.753 26.1901 112.805 26.0859C112.87 25.9688 112.941 25.8581 113.02 25.7539C113.098 25.6367 113.176 25.5326 113.254 25.4414C113.345 25.3372 113.417 25.2331 113.469 25.1289C113.573 24.9206 113.742 24.6667 113.977 24.3672C114.211 24.0547 114.484 23.7227 114.797 23.3711C115.122 23.0195 115.48 22.6615 115.871 22.2969C116.275 21.9193 116.691 21.5482 117.121 21.1836C117.251 21.0794 117.342 20.9948 117.395 20.9297C117.46 20.8646 117.512 20.819 117.551 20.793C117.59 20.7539 117.629 20.7344 117.668 20.7344C117.707 20.7214 117.772 20.7148 117.863 20.7148C118.293 20.7148 118.579 20.7865 118.723 20.9297C118.866 21.0599 118.938 21.2552 118.938 21.5156C118.938 21.5938 118.931 21.6784 118.918 21.7695C118.905 21.8607 118.885 21.9583 118.859 22.0625ZM126.301 22.3359C126.288 22.4141 126.249 22.4531 126.184 22.4531H126.125C126.047 22.4531 126.008 22.4922 126.008 22.5703C126.008 22.6094 126.008 22.6484 126.008 22.6875C126.021 22.7135 126.027 22.7396 126.027 22.7656C126.027 22.8307 125.969 22.9609 125.852 23.1562C125.734 23.3516 125.565 23.5859 125.344 23.8594C125.135 24.1198 124.875 24.3932 124.562 24.6797C124.263 24.9531 123.924 25.194 123.547 25.4023C123.339 25.5195 123.104 25.6562 122.844 25.8125C122.583 25.9557 122.29 26.0273 121.965 26.0273C121.939 26.0273 121.906 26.0273 121.867 26.0273C121.841 26.0143 121.815 26.0078 121.789 26.0078C121.776 26.0078 121.717 26.0013 121.613 25.9883C121.509 25.9753 121.392 25.9622 121.262 25.9492C121.145 25.9362 121.021 25.9232 120.891 25.9102C120.76 25.8971 120.669 25.8776 120.617 25.8516C120.5 25.8125 120.37 25.6823 120.227 25.4609C120.083 25.2266 119.921 25.0182 119.738 24.8359C119.647 24.7448 119.549 24.6667 119.445 24.6016C119.341 24.5234 119.243 24.4453 119.152 24.3672C119.074 24.2891 119.003 24.2109 118.938 24.1328C118.885 24.0417 118.859 23.944 118.859 23.8398C118.898 23.8398 119.003 23.7357 119.172 23.5273C119.354 23.306 119.549 23.0716 119.758 22.8242C119.979 22.5638 120.188 22.3229 120.383 22.1016C120.578 21.8802 120.708 21.7695 120.773 21.7695C120.826 21.7695 120.871 21.7305 120.91 21.6523C120.962 21.5742 121.008 21.4896 121.047 21.3984C121.086 21.2943 121.132 21.1966 121.184 21.1055C121.236 21.0013 121.294 20.9297 121.359 20.8906C121.529 20.9036 121.646 20.9883 121.711 21.1445C121.776 21.3008 121.822 21.4896 121.848 21.7109C121.874 21.9323 121.893 22.1797 121.906 22.4531C121.932 22.7135 121.984 22.9544 122.062 23.1758C122.141 23.3971 122.271 23.5859 122.453 23.7422C122.635 23.8854 122.902 23.957 123.254 23.957C123.332 23.957 123.404 23.9505 123.469 23.9375C123.547 23.9245 123.625 23.8984 123.703 23.8594C123.781 23.8203 123.872 23.7617 123.977 23.6836C124.094 23.6055 124.237 23.5013 124.406 23.3711C124.562 23.2539 124.699 23.1172 124.816 22.9609C124.947 22.7917 125.07 22.6289 125.188 22.4727C125.318 22.3034 125.461 22.1536 125.617 22.0234C125.773 21.8932 125.956 21.8086 126.164 21.7695C126.19 21.8216 126.223 21.8867 126.262 21.9648C126.301 22.0299 126.32 22.1081 126.32 22.1992C126.32 22.2253 126.314 22.2513 126.301 22.2773C126.301 22.2904 126.301 22.3099 126.301 22.3359ZM135.363 24.1719C135.337 24.6667 135.266 25.1159 135.148 25.5195C135.044 25.9232 134.908 26.2943 134.738 26.6328C134.582 26.9714 134.406 27.2839 134.211 27.5703C134.016 27.8568 133.814 28.1367 133.605 28.4102C133.475 28.5794 133.371 28.7292 133.293 28.8594C133.215 28.9766 133.137 29.0807 133.059 29.1719C132.98 29.263 132.896 29.3411 132.805 29.4062C132.714 29.4714 132.59 29.5234 132.434 29.5625C132.329 29.5885 132.206 29.6211 132.062 29.6602C131.932 29.6862 131.815 29.7513 131.711 29.8555C131.685 29.8815 131.659 29.9336 131.633 30.0117C131.607 30.0768 131.581 30.1224 131.555 30.1484C131.451 30.2266 131.327 30.2786 131.184 30.3047C131.053 30.3177 130.936 30.3633 130.832 30.4414C130.728 30.5326 130.656 30.6107 130.617 30.6758C130.578 30.7409 130.507 30.806 130.402 30.8711C130.298 30.9362 130.174 30.9883 130.031 31.0273C129.901 31.0534 129.777 31.099 129.66 31.1641C129.569 31.2292 129.497 31.3073 129.445 31.3984C129.406 31.4766 129.335 31.5482 129.23 31.6133C129.022 31.7565 128.846 31.8672 128.703 31.9453C128.56 32.0104 128.443 32.1081 128.352 32.2383C128.273 32.3685 128.215 32.5573 128.176 32.8047C128.137 33.0521 128.117 33.4297 128.117 33.9375C128.117 34.237 128.124 34.5234 128.137 34.7969C128.163 35.0703 128.189 35.2721 128.215 35.4023C128.228 35.4414 128.267 35.5326 128.332 35.6758C128.41 35.806 128.501 35.9492 128.605 36.1055C128.723 36.2617 128.853 36.4049 128.996 36.5352C129.139 36.6523 129.289 36.7109 129.445 36.7109C129.68 36.7109 129.888 36.6263 130.07 36.457C130.253 36.2747 130.454 36.1185 130.676 35.9883C130.845 35.8841 131.066 35.7474 131.34 35.5781C131.613 35.3958 131.835 35.194 132.004 34.9727C132.056 34.8945 132.121 34.7904 132.199 34.6602C132.277 34.5169 132.362 34.3802 132.453 34.25C132.557 34.1068 132.668 33.9896 132.785 33.8984C132.915 33.7943 133.059 33.7422 133.215 33.7422C133.28 33.7422 133.365 33.7617 133.469 33.8008C133.456 34.0221 133.384 34.224 133.254 34.4062C133.137 34.5885 133 34.7578 132.844 34.9141C132.701 35.0573 132.57 35.1875 132.453 35.3047C132.336 35.4219 132.277 35.5195 132.277 35.5977C132.277 35.6237 132.277 35.6628 132.277 35.7148C132.29 35.7539 132.297 35.7865 132.297 35.8125C132.297 35.8776 132.219 35.9297 132.062 35.9688C131.919 35.9948 131.802 36.0469 131.711 36.125C131.646 36.1901 131.594 36.2682 131.555 36.3594C131.529 36.4375 131.483 36.5026 131.418 36.5547C131.275 36.6719 131.125 36.776 130.969 36.8672C130.812 36.9583 130.669 37.056 130.539 37.1602C130.396 37.2904 130.246 37.4401 130.09 37.6094C129.947 37.7786 129.803 37.9349 129.66 38.0781C129.517 38.2344 129.374 38.3646 129.23 38.4688C129.1 38.5729 128.977 38.625 128.859 38.625C128.794 38.625 128.723 38.612 128.645 38.5859C128.579 38.5729 128.514 38.5664 128.449 38.5664C128.384 38.5664 128.332 38.5924 128.293 38.6445C128.254 38.6966 128.202 38.7227 128.137 38.7227C128.02 38.7227 127.883 38.6641 127.727 38.5469C127.57 38.4427 127.44 38.3646 127.336 38.3125C127.154 38.2474 126.939 38.2018 126.691 38.1758C126.444 38.1628 126.268 38.1172 126.164 38.0391C126.073 37.9609 126.001 37.8177 125.949 37.6094C125.91 37.401 125.839 37.1992 125.734 37.0039C125.63 36.8216 125.513 36.6719 125.383 36.5547C125.253 36.4375 125.174 36.3464 125.148 36.2812C125.122 36.2031 125.103 36.099 125.09 35.9688C125.09 35.8255 125.09 35.6823 125.09 35.5391C125.09 35.3828 125.083 35.2331 125.07 35.0898C125.057 34.9336 125.031 34.7969 124.992 34.6797C124.979 34.6406 124.953 34.6081 124.914 34.582C124.875 34.543 124.855 34.4714 124.855 34.3672C124.855 34.3802 124.875 34.3542 124.914 34.2891C124.966 34.2109 124.992 34.1458 124.992 34.0938C125.057 33.0651 125.148 32.0885 125.266 31.1641C125.396 30.2266 125.559 29.3737 125.754 28.6055C125.949 27.8242 126.184 27.1471 126.457 26.5742C126.743 25.9883 127.082 25.526 127.473 25.1875C127.538 25.1354 127.609 25.1159 127.688 25.1289C127.779 25.1289 127.857 25.1029 127.922 25.0508C127.948 25.0247 127.967 24.9792 127.98 24.9141C128.007 24.8359 128.033 24.7839 128.059 24.7578C128.124 24.7057 128.195 24.6797 128.273 24.6797C128.365 24.6797 128.436 24.6536 128.488 24.6016C128.527 24.5755 128.579 24.5234 128.645 24.4453C128.71 24.3672 128.775 24.2826 128.84 24.1914C128.905 24.1003 128.97 24.0156 129.035 23.9375C129.1 23.8464 129.165 23.7812 129.23 23.7422C129.387 23.638 129.576 23.5664 129.797 23.5273C130.018 23.4883 130.22 23.4102 130.402 23.293C130.454 23.2669 130.513 23.2148 130.578 23.1367C130.643 23.0586 130.708 22.9805 130.773 22.9023C130.852 22.8112 130.923 22.7331 130.988 22.668C131.053 22.6029 131.118 22.5703 131.184 22.5703C131.21 22.5703 131.242 22.5768 131.281 22.5898C131.32 22.5898 131.353 22.5898 131.379 22.5898C131.405 22.5898 131.503 22.5117 131.672 22.3555C131.854 22.1992 132.017 22.0755 132.16 21.9844C132.199 21.9583 132.219 21.9128 132.219 21.8477C132.232 21.7695 132.258 21.7174 132.297 21.6914C132.362 21.6393 132.466 21.6003 132.609 21.5742C132.753 21.5352 132.889 21.4766 133.02 21.3984C133.124 21.3333 133.202 21.2682 133.254 21.2031C133.306 21.138 133.423 21.1055 133.605 21.1055C134.074 21.1445 134.432 21.2292 134.68 21.3594C134.927 21.4896 135.096 21.6784 135.188 21.9258C135.292 22.1602 135.344 22.4661 135.344 22.8438C135.357 23.2083 135.363 23.651 135.363 24.1719ZM132.59 24.1719C132.577 24.1458 132.525 24.1003 132.434 24.0352C132.355 23.957 132.31 23.9049 132.297 23.8789C132.258 23.8138 132.238 23.7487 132.238 23.6836C132.238 23.6055 132.232 23.5339 132.219 23.4688C132.206 23.4036 132.18 23.3516 132.141 23.3125C132.115 23.2734 132.056 23.2539 131.965 23.2539C131.887 23.2539 131.77 23.2995 131.613 23.3906C131.47 23.4688 131.314 23.5664 131.145 23.6836C130.988 23.8008 130.839 23.918 130.695 24.0352C130.552 24.1523 130.454 24.2435 130.402 24.3086C130.337 24.3867 130.246 24.5299 130.129 24.7383C130.025 24.9336 129.914 25.1354 129.797 25.3438C129.693 25.5521 129.595 25.7344 129.504 25.8906C129.413 26.0469 129.361 26.125 129.348 26.125C129.348 26.151 129.348 26.1836 129.348 26.2227C129.361 26.2617 129.367 26.2943 129.367 26.3203C129.367 26.3984 129.315 26.4701 129.211 26.5352C129.107 26.5872 129.055 26.6979 129.055 26.8672C129.055 26.9323 129.061 27.0104 129.074 27.1016C129.087 27.1797 129.094 27.2513 129.094 27.3164C129.094 27.4206 129.048 27.5247 128.957 27.6289C128.879 27.7331 128.827 27.8438 128.801 27.9609C128.684 28.3776 128.566 28.8268 128.449 29.3086C128.332 29.7773 128.273 30.2396 128.273 30.6953C128.273 30.8385 128.286 30.9622 128.312 31.0664C128.352 31.1576 128.456 31.2031 128.625 31.2031C128.742 31.2031 128.827 31.1836 128.879 31.1445C128.944 31.0924 128.996 31.0339 129.035 30.9688C129.074 30.8906 129.107 30.819 129.133 30.7539C129.159 30.6888 129.191 30.6367 129.23 30.5977C129.4 30.4414 129.595 30.2786 129.816 30.1094C130.038 29.9401 130.259 29.7643 130.48 29.582C130.715 29.3867 130.936 29.1914 131.145 28.9961C131.366 28.8008 131.555 28.6055 131.711 28.4102C131.75 28.3451 131.789 28.2409 131.828 28.0977C131.867 27.9414 131.926 27.7982 132.004 27.668C132.199 27.3294 132.349 26.8932 132.453 26.3594C132.57 25.8255 132.629 25.2396 132.629 24.6016C132.629 24.5365 132.622 24.4648 132.609 24.3867C132.609 24.3086 132.603 24.237 132.59 24.1719Z" fill="black"/>
<path d="M6.327 15.2L19 22.8L38 11.4L19 0L0 11.4H19V15.2H6.327ZM0 15.2V30.4L3.8 26.182V17.48L0 15.2ZM19 38L9.5 32.3L5.7 30.02V18.62L19 26.6L32.3 18.62V30.02L19 38Z" fill="black"/>
</svg>
